<?xml version="1.0" encoding="utf-8"?>
<!-- Generator: Adobe Illustrator 27.5.0, SVG Export Plug-In . SVG Version: 6.00 Build 0)  -->
<svg version="1.1" id="Layer_1" xmlns="http://www.w3.org/2000/svg" xmlns:xlink="http://www.w3.org/1999/xlink" x="0px" y="0px"
	 viewBox="0 0 24 24" style="enable-background:new 0 0 24 24;" xml:space="preserve">
<style type="text/css">
	.st0{fill:none;}
	.st1{display:none;}
</style>
<path class="st0" d="M0,0h24v24H0V0z"/>
<path id="bluepath" class="st1" d="M12,2C8.1,2,5,5.1,5,9c0,5.2,7,13,7,13s7-7.8,7-13C19,5.1,15.9,2,12,2z M16,10h-3v3h-2v-3H8V8h3
	V5h2v3h3V10z"/>
<path id="boat" class="st1" d="M12,2C8.1,2,5,5.1,5,9c0,5.2,7,13,7,13s7-7.8,7-13C19,5.1,15.9,2,12,2z M7,8.4
	c0.1-0.1,0.2-0.2,0.3-0.3L8,7.9V5.5c0-0.6,0.5-1,1-1h1.5V3h3v1.5H15c0.6,0,1,0.5,1,1v2.3l0.6,0.2c0.1,0,0.2,0.1,0.3,0.3
	C17,8.5,17,8.6,17,8.7L16,12.1h0c-0.8,0-1.5-0.4-2-1c-0.5,0.6-1.2,1-2,1s-1.5-0.4-2-1c-0.5,0.6-1.2,1-2,1h0L7,8.7C7,8.6,7,8.5,7,8.4
	z M16,14.2c-0.7,0-1.4-0.2-2-0.5c-1.3,0.7-2.7,0.7-4,0c-0.6,0.3-1.3,0.5-2,0.5H7v-1h1c0.7,0,1.4-0.2,2-0.7c1.2,0.9,2.8,0.9,4,0
	c0.6,0.4,1.3,0.7,2,0.7h1v1H16z M12,6.6l-3,1v-2h6v2L12,6.6z"/>
<path id="bus" class="st1" d="M15.7,12.2c0,0.5-0.4,0.9-0.9,0.9s-0.9-0.4-0.9-0.9s0.4-0.9,0.9-0.9S15.7,11.7,15.7,12.2z M9.2,11.3
	c-0.5,0-0.9,0.4-0.9,0.9s0.4,0.9,0.9,0.9s0.9-0.4,0.9-0.9S9.7,11.3,9.2,11.3z M19,9c0,5.2-7,13-7,13S5,14.2,5,9c0-3.9,3.1-7,7-7
	S19,5.1,19,9z M16.9,12.6V6.3c0-2.2-2.2-2.5-5-2.5c-2.7,0-5,0.3-5,2.5v6.2c0,0.5,0.2,1,0.6,1.4V15c0,0.3,0.3,0.6,0.6,0.6h0.6
	c0.3,0,0.6-0.3,0.6-0.6v-0.6h5V15c0,0.3,0.3,0.6,0.6,0.6h0.6c0.3,0,0.6-0.3,0.6-0.6v-1.1C16.7,13.6,16.9,13.1,16.9,12.6z M8.2,9.4
	h7.5V6.3H8.2V9.4z"/>
<path id="car" class="st1" d="M12,2C8.1,2,5,5.1,5,9c0,5.2,7,13,7,13s7-7.8,7-13C19,5.1,15.9,2,12,2z M16.9,12.8
	c0,0.3-0.2,0.5-0.5,0.5h-0.5c-0.3,0-0.5-0.2-0.5-0.5v-0.5H8.8v0.5c0,0.3-0.2,0.5-0.5,0.5H7.7c-0.3,0-0.5-0.2-0.5-0.5V8.5l1.1-3.2
	C8.4,4.9,8.7,4.7,9,4.7H15c0.4,0,0.7,0.2,0.8,0.5l1.1,3.2V12.8z M15.8,9.8c0,0.4-0.4,0.8-0.8,0.8c-0.4,0-0.8-0.4-0.8-0.8
	S14.5,9,15,9C15.4,9,15.8,9.4,15.8,9.8z M9.8,9.8c0,0.4-0.4,0.8-0.8,0.8c-0.4,0-0.8-0.4-0.8-0.8S8.6,9,9,9C9.5,9,9.8,9.4,9.8,9.8z
	 M15,5.5l0.8,2.4H8.2L9,5.5H15z"/>
<path id="tram" class="st1" d="M12,2C8.1,2,5,5.1,5,9c0,5.2,7,13,7,13s7-7.8,7-13C19,5.1,15.9,2,12,2z M16.8,11.7
	c0,1.2-0.9,2.1-2.1,2.1l0.9,0.9V15H8.4v-0.3l0.9-0.9c-1.2,0-2.1-0.9-2.1-2.1V5.4C7.2,3.3,9.3,3,12,3s4.8,0.3,4.8,2.4V11.7z M8.4,5.4
	h7.2v3H8.4V5.4z M13.2,11.4c0,0.7-0.5,1.2-1.2,1.2s-1.2-0.5-1.2-1.2c0-0.7,0.5-1.2,1.2-1.2S13.2,10.7,13.2,11.4z"/>
<path id="train" class="st1" d="M15.5,11.8c0,0.5-0.4,0.9-0.9,0.9s-0.9-0.4-0.9-0.9s0.4-0.9,0.9-0.9S15.5,11.3,15.5,11.8z M8.5,9.2
	h2.9V6.3H8.5V9.2z M12.6,9.2h2.9V6.3h-2.9V9.2z M19,9c0,5.2-7,13-7,13S5,14.2,5,9c0-3.9,3.1-7,7-7S19,5.1,19,9z M16.6,6.3
	c0-2-2.1-2.3-4.6-2.3S7.4,4.3,7.4,6.3v5.5c0,1.1,0.9,2,2,2l-0.9,0.9V15h6.9v-0.3l-0.9-0.9c1.1,0,2-0.9,2-2V6.3z M9.4,10.9
	c-0.5,0-0.9,0.4-0.9,0.9s0.4,0.9,0.9,0.9s0.9-0.4,0.9-0.9S9.9,10.9,9.4,10.9z"/>
<path id="walk" class="st1" d="M12,2C8.1,2,5,5.1,5,9c0,5.2,7,13,7,13s7-7.8,7-13C19,5.1,15.9,2,12,2z M12.6,3.3
	c0.7,0,1.2,0.6,1.2,1.2c0,0.7-0.6,1.2-1.2,1.2s-1.2-0.6-1.2-1.2C11.4,3.9,11.9,3.3,12.6,3.3z M16,10.4c-1.4,0-2.6-0.6-3.4-1.5
	l-0.4,1.9l1.3,1.2v4.6h-1.2v-3.7L11,11.7l-1.1,4.9H8.6l1.7-8.7L9.2,8.3v2.1H8V7.5l3.2-1.4c0.2,0,0.3-0.1,0.5-0.1
	c0.4,0,0.8,0.2,1,0.6l0.6,1c0.5,0.9,1.5,1.5,2.7,1.5V10.4z"/>
<path id="cloud" class="st1" d="M17,9.5c0,0.8-0.7,1.5-1.5,1.5H9c-1.1,0-2-0.9-2-2s0.9-2,2-2s2,0.9,2,2h1c0-1.4-0.9-2.5-2.2-2.9
	C10.3,5.4,11.1,5,12,5c1.5,0,2.8,1.2,2.8,2.8V8h0.8C16.3,8,17,8.7,17,9.5z M19,9c0,5.2-7,13-7,13S5,14.2,5,9c0-3.9,3.1-7,7-7
	S19,5.1,19,9z M18,9.5c0-1.3-1-2.4-2.3-2.5c-0.3-1.7-1.9-3-3.7-3c-1.4,0-2.7,0.8-3.3,2C7.2,6.2,6,7.5,6,9c0,1.7,1.3,3,3,3h6.5
	C16.9,12,18,10.9,18,9.5z"/>
<path id="mountains" class="st1" d="M12,2C8.1,2,5,5.1,5,9c0,5.2,7,13,7,13s7-7.8,7-13C19,5.1,15.9,2,12,2z M16.8,11.3
	c0,0.6-0.5,1.1-1.1,1.1H8.2c-0.6,0-1.1-0.5-1.1-1.1V6.8c0-0.6,0.5-1.1,1.1-1.1h7.5c0.6,0,1.1,0.5,1.1,1.1V11.3z M13.3,7.5l2.4,3.2
	H8.2l1.9-2.4l1.3,1.6L13.3,7.5z"/>
<path id="kayak" class="st1" d="M12,2C8.1,2,5,5.1,5,9c0,5.2,7,13,7,13s7-7.8,7-13C19,5.1,15.9,2,12,2z M12,5.6
	c0.5,0,0.9,0.4,0.9,0.9c0,0.5-0.4,0.9-0.9,0.9S11.1,7,11.1,6.5C11.1,6,11.5,5.6,12,5.6z M9.8,10.2l0.6-1.9c0.1-0.4,0.6-0.7,1-0.5
	c0,0,0.1,0,0.1,0.1l1.1,0.6L14,7.7L14.8,6l-0.2-0.6L15.1,4l1.5,0.7L16,6l-0.6,0.2l-1.7,3.8c2.2,0.3,3.9,1,3.9,1s-0.7,0.3-1.8,0.6
	c-0.4-0.1-0.7-0.3-1-0.6c-0.3,0.4-0.8,0.7-1.4,0.7c-0.6,0-1-0.3-1.4-0.7c-0.3,0.4-0.8,0.7-1.4,0.7c-0.6,0-1-0.3-1.4-0.7
	c-0.2,0.3-0.6,0.5-1,0.6c-1.1-0.3-1.8-0.6-1.8-0.6S7.8,10.5,9.8,10.2z M16.6,13.7h-0.5c-0.5,0-1-0.1-1.4-0.3c-0.9,0.5-1.9,0.5-2.8,0
	c-0.9,0.5-1.9,0.5-2.8,0c-0.4,0.2-0.9,0.3-1.4,0.3H7.4v-0.9h0.5c0.5,0,1-0.2,1.4-0.5c0.8,0.6,1.9,0.6,2.8,0c0.8,0.6,1.9,0.6,2.8,0
	c0.4,0.3,0.9,0.5,1.4,0.5h0.5V13.7z M12,10c-0.1,0-0.3,0-0.4,0l0.3-1l0.8,0.4l0.7-0.4L13,10C12.6,10,12.3,10,12,10z"/>
<path id="luggage" class="st1" d="M11.6,8.2h0.9v5.3h-0.9V8.2z M9.6,13.6h0.9V8.2H9.6V13.6z M11.1,6.4h1.8V5h-1.8V6.4z M19,9
	c0,5.2-7,13-7,13S5,14.2,5,9c0-3.9,3.1-7,7-7S19,5.1,19,9z M16.1,7.6c0-0.7-0.5-1.2-1.2-1.2h-1.2V4.7c0-0.3-0.3-0.6-0.6-0.6h-2.4
	c-0.3,0-0.6,0.3-0.6,0.6v1.8H9C8.4,6.4,7.9,7,7.9,7.6v6.5c0,0.7,0.5,1.2,1.2,1.2c0,0.3,0.3,0.6,0.6,0.6c0.3,0,0.6-0.3,0.6-0.6h3.6
	c0,0.3,0.3,0.6,0.6,0.6c0.3,0,0.6-0.3,0.6-0.6c0.7,0,1.2-0.5,1.2-1.2V7.6z M13.5,13.6h0.9V8.2h-0.9V13.6z"/>
<path id="wave" class="st1" d="M12,2C8.1,2,5,5.1,5,9c0,5.2,7,13,7,13s7-7.8,7-13C19,5.1,15.9,2,12,2z M17,13.5
	c-0.6,0-1.2-0.2-1.7-0.5c-1,0.6-2.3,0.6-3.3,0c-1,0.6-2.3,0.6-3.3,0c-0.5,0.3-1.1,0.5-1.7,0.5v-1c0.3,0,0.7,0,1.7-0.7
	c1.9,1.4,3,0.2,3.3,0c0.3,0.2,1.4,1.4,3.3,0c0.9,0.7,1.3,0.7,1.7,0.7V13.5z M11,8.2c0,0.6,0.2,1.2,0.5,1.6c0.2-0.1,0,0,0.5-0.3
	c0.3,0.2,1.4,1.4,3.3,0c0.9,0.7,1.3,0.7,1.7,0.7v1c-0.6,0-1.2-0.2-1.7-0.5c-1,0.6-2.3,0.6-3.3,0c-1,0.6-2.3,0.6-3.3,0
	c-0.5,0.3-1.1,0.5-1.7,0.5l0-1C7.1,7,9.7,4.5,13,4.5c0.5,0,0.9,0.1,1.5,0.2C14.2,5.5,14,5.8,14,6.3C14,7.2,14.8,8,15.7,8H17v1h-1.3
	C14.2,9,13,7.8,13,6.3c0-0.2,0-0.5,0.1-0.8C11.9,5.9,11,7,11,8.2z"/>
</svg>
