<svg version="1.1" xmlns="http://www.w3.org/2000/svg" xmlns:xlink="http://www.w3.org/1999/xlink" x="0px" y="0px"
	 viewBox="0 0 240 240" style="enable-background:new 0 0 240 240;" xml:space="preserve">

<g class="frame">
	<path d="M220,240H20c-11,0-20-9-20-20V20C0,9,9,0,20,0h200c11,0,20,9,20,20v200C240,231,231,240,220,240z"/>
</g>
	<g id="administration">
		<path style="display:inline;fill:#65B7E1;" d="M141.5,61.5c0,12.2-8.5,22-19.1,22s-19.1-9.8-19.1-22s8.5-22,19.1-22S141.5,49.4,141.5,61.5z M144.8,88.4
			h-5.3c-8.6,0.1-31.4,0.3-35.2,0c-9-0.7-17.7,10.5-22.1,17.3c-4.2,6.5-8,25.3-8.9,30.9c-0.6,3.7,1.7,7.1,5.4,7.9
			c0.5,0.1,0.8,0.1,1.2,0.1c3.2,0,6-2.3,6.6-5.5c1.9-10.2,5.1-23.1,7-26.1c4.4-6.7,9.3-10.8,10.3-11.2c0.1,0,1.1,0,1.1,0v36
			c0,0,10.4,9,23,9s10.4-7.1,10.4-7.1v-37.8h2.7c3,4.1,10.6,18.4,12.6,36.8c0.4,3.7,4.1,6.4,7.8,5.9c3.7-0.4,6.6-3.7,6.1-7.4
			C165.7,120,156.5,88.4,144.8,88.4z"/>
		<g style="display:inline;">
			<path style="fill:#BED817;" d="M88.3,103.7c0,12.2-8.5,22-19.1,22s-19.1-9.8-19.1-22s8.5-22,19.1-22S88.3,91.6,88.3,103.7z M91.6,130.6
				h-5.3c-8.6,0.1-31.4,0.3-35.2,0c-9-0.7-17.7,10.5-22.1,17.3c-4.2,6.5-8,25.3-8.9,30.9c-0.6,3.7,1.7,7.1,5.4,7.9
				c0.5,0.1,0.8,0.1,1.2,0.1c3.2,0,6-2.3,6.6-5.5c1.9-10.2,5.1-23.1,7-26.1c4.4-6.7,9.3-10.8,10.3-11.2c0.1,0,1.1,0,1.1,0v36
				c0,0,10.4,9,23,9s10.4-7.1,10.4-7.1V144h2.7c3,4.1,10.6,18.4,12.6,36.8c0.4,3.7,4.1,6.4,7.8,5.9c3.7-0.4,6.6-3.7,6.1-7.4
				C112.5,162.2,103.3,130.6,91.6,130.6z"/>
			<path style="fill:#000000;" d="M74.8,189.9c-12.8,0-23.3-8.8-23.7-9.2l-0.3-0.3V145c-1.3,0.8-5.7,4.7-9.6,10.6c-1.8,2.8-5,15.6-6.9,25.8
				c-0.6,3.6-3.8,6.3-7.6,6.3c-0.4,0-0.8,0-1.4-0.1c-4.2-0.8-6.9-4.8-6.2-9c1-6,4.8-24.7,9-31.3c4.5-7,13.5-18.5,23-17.7
				c3.5,0.3,24.5,0.1,35.1,0h5.3c12.9,0,22,32.8,23.8,49.5c0.2,1.9-0.3,3.9-1.6,5.5c-1.3,1.7-3.3,2.8-5.4,3c-2.1,0.3-4.3-0.4-6-1.8
				c-1.6-1.3-2.6-3.1-2.8-5.1c-2-17.9-9.3-31.7-12.1-35.8h-1.1v36.7c0.1,0.6,0.5,2.7-1,4.7C83.5,188.8,80,189.9,74.8,189.9z
				 M52.7,179.5c1.9,1.5,11.2,8.4,22,8.4c4.5,0,7.5-0.9,8.8-2.7c1.1-1.5,0.6-3.1,0.6-3.1l0-0.3V143h4.2l0.3,0.4
				c2.9,3.9,10.7,18.2,12.8,37.2c0.1,1.4,0.9,2.8,2.1,3.7c1.3,1,3,1.5,4.6,1.3c1.6-0.2,3.1-1,4.1-2.2c1-1.2,1.4-2.6,1.2-4.1
				c-1.8-16.7-10.8-47.8-21.8-47.8h-5.3c-10.6,0.1-31.7,0.3-35.3,0c-8.8-0.7-17.8,11.5-21.2,16.8c-4.1,6.3-7.7,24.6-8.7,30.5
				c-0.6,3.1,1.5,6.1,4.6,6.7c0.4,0.1,0.7,0.1,1,0.1c2.8,0,5.1-2,5.6-4.7c2-10.5,5.1-23.3,7.2-26.5c4.3-6.5,9.4-11,10.8-11.6
				l0.2-0.1h2.3V179.5z M69.2,126.8c-11.1,0-20.1-10.3-20.1-23s9-23,20.1-23c11.1,0,20.1,10.3,20.1,23S80.3,126.8,69.2,126.8z
				 M69.2,82.7c-10,0-18.1,9.4-18.1,21c0,11.6,8.1,21,18.1,21s18.1-9.4,18.1-21C87.3,92.1,79.2,82.7,69.2,82.7z"/>
		</g>
		<g style="display:inline;">
			<path style="fill:#FFEC6F;" d="M193.8,96.2c0,12.2-8.5,22-19.1,22c-10.6,0-19.1-9.8-19.1-22s8.5-22,19.1-22
				C185.2,74.2,193.8,84.1,193.8,96.2z M197.1,123.1h-5.3c-8.6,0.1-31.4,0.3-35.2,0c-9-0.7-17.7,10.5-22.1,17.3
				c-4.2,6.5-8,25.3-8.9,30.9c-0.6,3.7,1.7,7.1,5.4,7.9c0.5,0.1,0.8,0.1,1.2,0.1c3.2,0,6-2.3,6.6-5.5c1.9-10.2,5.1-23.1,7-26.1
				c4.3-6.7,10.1-10.7,11.1-11.2c0.1,0,2,0,2,0v36c0,0,10.4,9,23,9s10.4-7.1,10.4-7.1v-37.8h1.8c3,4.1,10.2,18.4,12.2,36.8
				c0.4,3.7,3.9,6.4,7.6,5.9c3.7-0.4,6.5-3.7,6-7.4C218.2,154.8,208.8,123.1,197.1,123.1z"/>
			<path style="fill:#000000;" d="M181.9,182.4c-12.8,0-23.3-8.8-23.7-9.2l-0.3-0.3v-35.5h-0.8c-1.2,0.7-6.4,4.4-10.5,10.7
				c-1.8,2.8-5,15.6-6.9,25.8c-0.6,3.6-3.8,6.3-7.6,6.3c-0.4,0-0.8,0-1.4-0.1c-4.2-0.8-6.9-4.8-6.2-9c1-6,4.8-24.7,9-31.3
				c4.5-7,13.5-18.5,23-17.7c3.5,0.3,24.5,0.1,35.1,0h5.3c13.4,0,22.4,35,23.9,49.6c0.2,2-0.3,4-1.6,5.6c-1.3,1.6-3.3,2.7-5.3,2.9
				c-2,0.3-4.2-0.4-5.9-1.7c-1.6-1.3-2.6-3.1-2.8-5.2c-1.9-18.3-9-31.9-11.7-35.8h-0.3v36.6c0.1,0.6,0.5,2.7-1,4.7
				C190.6,181.3,187.1,182.4,181.9,182.4z M159.9,172c1.9,1.5,11.2,8.4,22,8.4c4.5,0,7.5-0.9,8.8-2.7c1.1-1.5,0.7-3.1,0.6-3.2l0-0.3
				v-38.8h3.3l0.3,0.4c2.6,3.5,10.3,17.8,12.3,37.2c0.1,1.5,0.9,2.8,2.1,3.8c1.2,1,2.8,1.4,4.4,1.3c1.5-0.2,3-0.9,4-2.2
				c1-1.2,1.4-2.7,1.2-4.1c-1.9-19.1-11.7-47.9-21.9-47.9h-5.3c-1.2,0-30.8,0.3-35.3,0c-8.8-0.7-17.8,11.5-21.2,16.8
				c-4.1,6.3-7.7,24.6-8.7,30.5c-0.6,3.1,1.5,6.1,4.6,6.7c0.4,0.1,0.7,0.1,1,0.1c2.8,0,5.1-2,5.6-4.7c2-10.5,5.1-23.3,7.2-26.5
				c4.4-6.8,10.2-10.9,11.5-11.5l0.2-0.1h3.2V172z M174.7,119.2c-11.1,0-20.1-10.3-20.1-23s9-23,20.1-23c11.1,0.1,20.1,10.4,20.1,23
				C194.8,108.9,185.8,119.2,174.7,119.2z M174.7,75.1c-10,0-18.1,9.4-18.1,21s8.1,21,18.1,21s18.1-9.4,18.1-21
				C192.8,84.6,184.7,75.2,174.7,75.1z"/>
		</g>
	</g>
</svg>
