<?xml version="1.0" encoding="utf-8"?>
<!-- Generator: Adobe Illustrator 20.0.0, SVG Export Plug-In . SVG Version: 6.00 Build 0)  -->
<svg version="1.1" xmlns="http://www.w3.org/2000/svg" xmlns:xlink="http://www.w3.org/1999/xlink" x="0px" y="0px"
	 viewBox="0 0 240 240" style="enable-background:new 0 0 240 240;" xml:space="preserve">

<g class="frame">
	<path d="M220,240H20c-11,0-20-9-20-20V20C0,9,9,0,20,0h200c11,0,20,9,20,20v200C240,231,231,240,220,240z"/>
</g>
<g id="Layer_1">
	<g id="business_intelligence">
		<path style="display:inline;fill:#2D90D0;" d="M120,44.8c-66.2,0-120,53.8-120,120c0,5.5,4.5,10,10,10h40.2c5.5,0,10-4.5,10-10c0-33,26.8-59.8,59.8-59.8
			s59.8,26.8,59.8,59.8c0,5.5,4.5,10,10,10H230c5.5,0,10-4.5,10-10C240,98.6,186.2,44.8,120,44.8z"/>
		<path style="display:inline;fill:#A5BC20;" d="M138.3,183.7L138.3,183.7l16.4-35.8l0,0c1.8-4.1,0.8-9.1-2.9-12.1c-3.7-3-8.8-3-12.4-0.3l0,0l-31.5,23l0,0
			c-1.3,1-2.6,2.1-3.7,3.5c-7.1,8.7-5.7,21.5,3,28.6s21.5,5.7,28.6-3C136.8,186.4,137.6,185.1,138.3,183.7z"/>
		<g style="display:inline;">
			<path style="fill:#FFD00E;" d="M168.6,101.6c-11-8.5-24.2-14.1-38.6-15.9V65.3c20,2,38.2,9.9,53,21.9L168.6,101.6z M71.4,101.6L57,87.2
				c14.8-12,33-19.9,53-21.9v20.3C95.6,87.4,82.4,93.1,71.4,101.6z M40.8,154.8H20.5c2-20.2,10.1-38.7,22.3-53.5l14.3,14.3
				C48.5,126.7,42.6,140.1,40.8,154.8z M199.2,154.8c-1.8-14.7-7.7-28.1-16.4-39.2l14.3-14.3c12.3,14.9,20.3,33.3,22.3,53.5H199.2z
				 M119.7,175.1c-0.1-0.1-0.2-0.3,0-0.5c0.1-0.1,0.3-0.2,0.5,0c0.1,0.1,0.2,0.3,0,0.5C120.1,175.2,119.9,175.2,119.7,175.1z"/>
		</g>
	</g>
	<g id="support">
		<g style="display:inline;">
			<path style="fill:#FFD00E;" d="M120,0C53.7,0,0,53.7,0,120s53.7,120,120,120s120-53.7,120-120S186.3,0,120,0L120,0z M120,20
				c55.1,0,100,44.9,100,100s-44.9,100-100,100S20,175.1,20,120S64.9,20,120,20 M120,200c44.1,0,80-35.9,80-80s-35.9-80-80-80
				s-80,35.9-80,80S75.9,200,120,200 M120,180c-33.1,0-60-26.8-60-60c0-33.1,26.8-60,60-60c33.1,0,60,26.8,60,60
				C180,153.1,153.1,180,120,180L120,180z"/>
		</g>
		<path style="display:inline;fill:#FF7110;" d="M193.9,89.4l18.5-7.7c9.8,23.6,10.6,51,0,76.5l-18.5-7.7C202.4,130.2,201.7,108.3,193.9,89.4z M150.6,46.1
			l7.7-18.5c-25.5-10.6-52.9-9.8-76.5,0l7.7,18.5C108.3,38.3,130.2,37.6,150.6,46.1z M46.1,89.4l-18.5-7.7
			c-10.6,25.5-9.8,52.9,0,76.5l18.5-7.7C38.3,131.7,37.6,109.8,46.1,89.4z M89.4,193.9l-7.7,18.5c25.5,10.6,52.9,9.8,76.5,0
			l-7.7-18.5C131.7,201.7,109.8,202.4,89.4,193.9z"/>
	</g>
	<g id="custom_items">
		<polyline style="display:inline;fill:#2D90D0;" points="220,47.5 20,47.5 20,222 220,222 220,47.5 		"/>
		<path style="display:inline;fill:#046FBD;" d="M189.2,28.7l-4.3,4.3l27.2,27.2l4.3-4.3c7.5-7.6,7.5-19.7,0-27.2l0,0C208.8,21.2,196.7,21.2,189.2,28.7z"/>
		<polygon style="display:inline;fill:#DAE2F9;" points="203.4,205.3 36.6,205.3 36.6,64.2 		"/>
		<polygon style="display:inline;fill:#BCDE24;" points="203.2,51.1 92.6,161.8 74.4,143.6 185,32.8 		"/>
		<polygon style="display:inline;fill:#A5BC20;" points="212,59.8 101.3,170.5 91.5,160.6 202.1,49.9 		"/>
		<polygon style="display:inline;fill:#FFE75B;" points="75,143.2 58.5,186.8 102,170.3 		"/>
		<path style="display:inline;fill:#000000;" d="M212.2,60.1L185,32.8L74.4,143.6l0.3,0.3l-16.2,42.9l42.9-16.2l0.3,0.3L212.2,60.1z M74.4,177.5l-6.7-6.7
			l8.4-22.2l20.5,20.6L74.4,177.5z M185,37l22.9,23L101.6,166.6l-22.9-23L185,37z"/>
	</g>
	<g id="administration">
		<path style="display:inline;fill:#65B7E1;" d="M141.5,61.5c0,12.2-8.5,22-19.1,22s-19.1-9.8-19.1-22s8.5-22,19.1-22S141.5,49.4,141.5,61.5z M144.8,88.4
			h-5.3c-8.6,0.1-31.4,0.3-35.2,0c-9-0.7-17.7,10.5-22.1,17.3c-4.2,6.5-8,25.3-8.9,30.9c-0.6,3.7,1.7,7.1,5.4,7.9
			c0.5,0.1,0.8,0.1,1.2,0.1c3.2,0,6-2.3,6.6-5.5c1.9-10.2,5.1-23.1,7-26.1c4.4-6.7,9.3-10.8,10.3-11.2c0.1,0,1.1,0,1.1,0v36
			c0,0,10.4,9,23,9s10.4-7.1,10.4-7.1v-37.8h2.7c3,4.1,10.6,18.4,12.6,36.8c0.4,3.7,4.1,6.4,7.8,5.9c3.7-0.4,6.6-3.7,6.1-7.4
			C165.7,120,156.5,88.4,144.8,88.4z"/>
		<g style="display:inline;">
			<path style="fill:#BED817;" d="M88.3,103.7c0,12.2-8.5,22-19.1,22s-19.1-9.8-19.1-22s8.5-22,19.1-22S88.3,91.6,88.3,103.7z M91.6,130.6
				h-5.3c-8.6,0.1-31.4,0.3-35.2,0c-9-0.7-17.7,10.5-22.1,17.3c-4.2,6.5-8,25.3-8.9,30.9c-0.6,3.7,1.7,7.1,5.4,7.9
				c0.5,0.1,0.8,0.1,1.2,0.1c3.2,0,6-2.3,6.6-5.5c1.9-10.2,5.1-23.1,7-26.1c4.4-6.7,9.3-10.8,10.3-11.2c0.1,0,1.1,0,1.1,0v36
				c0,0,10.4,9,23,9s10.4-7.1,10.4-7.1V144h2.7c3,4.1,10.6,18.4,12.6,36.8c0.4,3.7,4.1,6.4,7.8,5.9c3.7-0.4,6.6-3.7,6.1-7.4
				C112.5,162.2,103.3,130.6,91.6,130.6z"/>
			<path style="fill:#000000;" d="M74.8,189.9c-12.8,0-23.3-8.8-23.7-9.2l-0.3-0.3V145c-1.3,0.8-5.7,4.7-9.6,10.6c-1.8,2.8-5,15.6-6.9,25.8
				c-0.6,3.6-3.8,6.3-7.6,6.3c-0.4,0-0.8,0-1.4-0.1c-4.2-0.8-6.9-4.8-6.2-9c1-6,4.8-24.7,9-31.3c4.5-7,13.5-18.5,23-17.7
				c3.5,0.3,24.5,0.1,35.1,0h5.3c12.9,0,22,32.8,23.8,49.5c0.2,1.9-0.3,3.9-1.6,5.5c-1.3,1.7-3.3,2.8-5.4,3c-2.1,0.3-4.3-0.4-6-1.8
				c-1.6-1.3-2.6-3.1-2.8-5.1c-2-17.9-9.3-31.7-12.1-35.8h-1.1v36.7c0.1,0.6,0.5,2.7-1,4.7C83.5,188.8,80,189.9,74.8,189.9z
				 M52.7,179.5c1.9,1.5,11.2,8.4,22,8.4c4.5,0,7.5-0.9,8.8-2.7c1.1-1.5,0.6-3.1,0.6-3.1l0-0.3V143h4.2l0.3,0.4
				c2.9,3.9,10.7,18.2,12.8,37.2c0.1,1.4,0.9,2.8,2.1,3.7c1.3,1,3,1.5,4.6,1.3c1.6-0.2,3.1-1,4.1-2.2c1-1.2,1.4-2.6,1.2-4.1
				c-1.8-16.7-10.8-47.8-21.8-47.8h-5.3c-10.6,0.1-31.7,0.3-35.3,0c-8.8-0.7-17.8,11.5-21.2,16.8c-4.1,6.3-7.7,24.6-8.7,30.5
				c-0.6,3.1,1.5,6.1,4.6,6.7c0.4,0.1,0.7,0.1,1,0.1c2.8,0,5.1-2,5.6-4.7c2-10.5,5.1-23.3,7.2-26.5c4.3-6.5,9.4-11,10.8-11.6
				l0.2-0.1h2.3V179.5z M69.2,126.8c-11.1,0-20.1-10.3-20.1-23s9-23,20.1-23c11.1,0,20.1,10.3,20.1,23S80.3,126.8,69.2,126.8z
				 M69.2,82.7c-10,0-18.1,9.4-18.1,21c0,11.6,8.1,21,18.1,21s18.1-9.4,18.1-21C87.3,92.1,79.2,82.7,69.2,82.7z"/>
		</g>
		<g style="display:inline;">
			<path style="fill:#FFEC6F;" d="M193.8,96.2c0,12.2-8.5,22-19.1,22c-10.6,0-19.1-9.8-19.1-22s8.5-22,19.1-22
				C185.2,74.2,193.8,84.1,193.8,96.2z M197.1,123.1h-5.3c-8.6,0.1-31.4,0.3-35.2,0c-9-0.7-17.7,10.5-22.1,17.3
				c-4.2,6.5-8,25.3-8.9,30.9c-0.6,3.7,1.7,7.1,5.4,7.9c0.5,0.1,0.8,0.1,1.2,0.1c3.2,0,6-2.3,6.6-5.5c1.9-10.2,5.1-23.1,7-26.1
				c4.3-6.7,10.1-10.7,11.1-11.2c0.1,0,2,0,2,0v36c0,0,10.4,9,23,9s10.4-7.1,10.4-7.1v-37.8h1.8c3,4.1,10.2,18.4,12.2,36.8
				c0.4,3.7,3.9,6.4,7.6,5.9c3.7-0.4,6.5-3.7,6-7.4C218.2,154.8,208.8,123.1,197.1,123.1z"/>
			<path style="fill:#000000;" d="M181.9,182.4c-12.8,0-23.3-8.8-23.7-9.2l-0.3-0.3v-35.5h-0.8c-1.2,0.7-6.4,4.4-10.5,10.7
				c-1.8,2.8-5,15.6-6.9,25.8c-0.6,3.6-3.8,6.3-7.6,6.3c-0.4,0-0.8,0-1.4-0.1c-4.2-0.8-6.9-4.8-6.2-9c1-6,4.8-24.7,9-31.3
				c4.5-7,13.5-18.5,23-17.7c3.5,0.3,24.5,0.1,35.1,0h5.3c13.4,0,22.4,35,23.9,49.6c0.2,2-0.3,4-1.6,5.6c-1.3,1.6-3.3,2.7-5.3,2.9
				c-2,0.3-4.2-0.4-5.9-1.7c-1.6-1.3-2.6-3.1-2.8-5.2c-1.9-18.3-9-31.9-11.7-35.8h-0.3v36.6c0.1,0.6,0.5,2.7-1,4.7
				C190.6,181.3,187.1,182.4,181.9,182.4z M159.9,172c1.9,1.5,11.2,8.4,22,8.4c4.5,0,7.5-0.9,8.8-2.7c1.1-1.5,0.7-3.1,0.6-3.2l0-0.3
				v-38.8h3.3l0.3,0.4c2.6,3.5,10.3,17.8,12.3,37.2c0.1,1.5,0.9,2.8,2.1,3.8c1.2,1,2.8,1.4,4.4,1.3c1.5-0.2,3-0.9,4-2.2
				c1-1.2,1.4-2.7,1.2-4.1c-1.9-19.1-11.7-47.9-21.9-47.9h-5.3c-1.2,0-30.8,0.3-35.3,0c-8.8-0.7-17.8,11.5-21.2,16.8
				c-4.1,6.3-7.7,24.6-8.7,30.5c-0.6,3.1,1.5,6.1,4.6,6.7c0.4,0.1,0.7,0.1,1,0.1c2.8,0,5.1-2,5.6-4.7c2-10.5,5.1-23.3,7.2-26.5
				c4.4-6.8,10.2-10.9,11.5-11.5l0.2-0.1h3.2V172z M174.7,119.2c-11.1,0-20.1-10.3-20.1-23s9-23,20.1-23c11.1,0.1,20.1,10.4,20.1,23
				C194.8,108.9,185.8,119.2,174.7,119.2z M174.7,75.1c-10,0-18.1,9.4-18.1,21s8.1,21,18.1,21s18.1-9.4,18.1-21
				C192.8,84.6,184.7,75.2,174.7,75.1z"/>
		</g>
	</g>
	<g id="estate_management">
		<g id="est_background" style="display:inline;">
			<polygon style="opacity:0.4;fill:#56BCD9;" points="153.3,82.5 86.7,82.5 86.7,121.8 86.7,220 153.3,220 153.3,141.4 			"/>
			<rect x="20" y="121.8" style="opacity:0.4;fill:#B6E8FD;" width="66.7" height="98.2"/>
			<rect x="153.3" y="141.4" style="opacity:0.4;fill:#4B9FD1;" width="66.7" height="78.6"/>
		</g>
		<g id="est_foreground" style="display:inline;">
			<polygon style="fill:#56BCD9;" points="103.3,161.7 86.7,161.7 86.7,178.3 86.7,220 103.3,220 103.3,186.7 			"/>
			<polygon style="fill:#5FBBDE;" points="153.3,20 136.7,20 120,53.3 120,186.7 120,220 153.3,220 153.3,136.7 			"/>
			<polygon style="fill:#3599CA;" points="203.3,86.7 203.3,161.7 203.3,220 203.4,220 220,220 220,86.7 			"/>
			<path style="fill:#399ED1;" d="M70,178.3V220H36.7v-25v-33.3V70H70v91.7V178.3z M162,197.3v-35.6h-33.3v35.6v13v9.7H162v-16.2V197.3z"/>
			<polygon style="fill:#B0E2F7;" points="186.7,153.3 170,153.3 170,220 186.7,220 186.7,161.7 			"/>
			<polygon style="fill:#3899CD;" points="170,136.7 153.3,136.7 153.3,220 170,220 170,153.3 			"/>
			<rect x="70" y="178.3" style="fill:#B6E8FD;" width="16.7" height="41.7"/>
			<rect x="20" y="195" style="fill:#57C3F4;" width="16.7" height="25"/>
			<rect x="103.3" y="186.7" style="fill:#4B9FD1;" width="16.7" height="33.3"/>
			<rect x="186.7" y="161.7" style="fill:#349FD1;" width="16.7" height="58.3"/>
		</g>
	</g>
	<g id="configuration">
		<path id="con_list" style="display:inline;fill:#63BBE2;" d="M186.6,53.3H70V20h116.6V53.3z M186.6,120H70V86.7h116.6V120z M186.6,186.6H70v-33.3h116.6
			V186.6z M53.3,20H20v33.3h33.3V20z M20,120h33.3V86.7H20V120z M20,185.9h33.3v-33.3H20V185.9z"/>
		<g id="con_largeCog" style="display:inline;">
			<path style="fill:#FFD00E;" d="M147.8,220.6c-4-1.1-7.7-2.5-11.5-4.4l-1.6-0.8l-0.3-14.8c0-0.8-0.2-1.7-0.5-2.4c-0.3-0.8-0.9-1.5-1.5-2.1
				c-1.3-1.2-3-1.9-4.8-1.9l-14.8,0.3l-0.9-1.6l-0.8-1.6c-0.7-1.5-1.5-3.1-2.2-4.6c-0.7-1.5-1.3-3.2-1.9-5.1l-0.6-1.7l10.2-10.6
				c1.8-1.9,2.3-4.7,1.3-7.1c-0.3-0.8-0.8-1.5-1.5-2.2l-10.7-10.2l0.5-1.7c1-3.8,2.5-7.5,4.4-11.5l0.8-1.7l14.8-0.3
				c3.7-0.1,6.5-3.1,6.4-6.8l-0.3-14.8l1.6-0.9c2.3-1.3,4.3-2.3,6.2-3.1c1.5-0.6,3.2-1.3,5.2-1.9l1.7-0.6l10.7,10.3
				c1.2,1.2,2.8,1.8,4.5,1.8c1.8,0,3.5-0.7,4.8-2l10.2-10.6l1.7,0.5c4,1.1,7.7,2.5,11.5,4.4l1.6,0.8l0.3,14.8c0,0.9,0.2,1.7,0.5,2.5
				c0.3,0.8,0.8,1.5,1.5,2.1c1.3,1.2,2.9,1.9,4.7,1.9l14.8-0.3l0.9,1.6c1.2,2.2,2.3,4.2,3.2,6.4c0.7,1.6,1.3,3.3,1.9,5l0.6,1.7
				l-10.3,10.6c-1.8,1.9-2.3,4.7-1.3,7.1c0.3,0.8,0.8,1.5,1.5,2.2l10.6,10.1l-0.5,1.7c-1,3.8-2.5,7.5-4.4,11.5l-0.8,1.7l-14.8,0.3
				c-3.7,0.1-6.5,3.1-6.4,6.8l0.3,14.8l-1.6,0.9c-2.3,1.3-4.3,2.3-6.2,3.1c-1.5,0.7-3.2,1.3-5.2,1.9l-1.7,0.6l-10.7-10.3
				c-1.2-1.2-2.8-1.8-4.5-1.8c-1.8,0-3.5,0.7-4.8,2l-10.2,10.6L147.8,220.6z M163.4,140.2c-3.1,0-6.2,0.6-9.1,1.9
				c-11.8,5-17.3,18.7-12.3,30.6c3.7,8.6,12.1,14.2,21.5,14.2c3.1,0,6.2-0.6,9.1-1.9c11.8-5,17.3-18.7,12.3-30.6
				C181.2,145.8,172.8,140.2,163.4,140.2z"/>
			<path style="fill:#0071CB;" d="M177.7,107.1l1.2,0.3c4,1.1,7.7,2.5,11.3,4.4l1.1,0.6l0.3,14.2c0,1,0.2,1.9,0.6,2.8c0.4,0.9,1,1.7,1.7,2.4
				c1.5,1.4,3.4,2.1,5.4,2.1l14.2-0.3l0.6,1.1c1.2,2.1,2.2,4.2,3.1,6.2c0.7,1.6,1.3,3.2,1.8,4.9l0.4,1.2l-9.9,10.2
				c-2.2,2.3-2.6,5.5-1.5,8.2c0.4,0.9,1,1.8,1.7,2.5l10.2,9.7l-0.3,1.2c-1.1,4-2.6,7.8-4.4,11.3l-0.6,1.1l-14.2,0.3
				c-4.2,0.1-7.5,3.5-7.4,7.8l0.3,14.2l-1.1,0.6c-2.1,1.2-4,2.2-6.1,3c-1.7,0.7-3.4,1.3-5.1,1.9l-1.2,0.4l-10.2-9.9
				c-1.5-1.4-3.3-2.1-5.2-2.1c-2,0-4,0.8-5.5,2.3l-9.8,10.2l-1.2-0.3c-4-1.1-7.7-2.5-11.3-4.4l-1.1-0.6l-0.3-14.2
				c0-1-0.2-1.9-0.6-2.8c-0.4-0.9-1-1.8-1.8-2.5c-1.5-1.4-3.4-2.1-5.4-2.1l-14.2,0.3l-0.6-1.1c-1-2-2-4.1-2.9-6.1
				c-0.7-1.7-1.3-3.4-1.9-5l-0.4-1.2l9.8-10.2c2.2-2.3,2.6-5.5,1.5-8.2c-0.4-0.9-1-1.8-1.7-2.5l-10.2-9.8l0.3-1.2
				c1.1-4,2.6-7.8,4.4-11.3l0.6-1.1l14.2-0.3c4.2-0.1,7.5-3.5,7.4-7.8l-0.3-14.2l1.1-0.6c2.1-1.2,4-2.2,6.1-3
				c1.7-0.7,3.4-1.3,5.1-1.9l1.2-0.4l10.2,9.9c1.5,1.4,3.3,2.1,5.2,2.1c2,0,4-0.8,5.5-2.3L177.7,107.1 M163.5,187.8
				c3.2,0,6.4-0.6,9.5-1.9c12.3-5.3,18.1-19.5,12.8-31.9c-3.9-9.2-12.9-14.8-22.4-14.8c-3.2,0-6.4,0.6-9.5,1.9
				c-12.3,5.3-18.1,19.5-12.8,31.9C145.1,182.3,154.1,187.8,163.5,187.8 M177,104.9l-0.8,0.8l-9.8,10.2c-1.1,1.1-2.5,1.7-4.1,1.7
				c-1.4,0-2.8-0.5-3.8-1.5l-10.2-9.9l-0.9-0.8l-1.1,0.4l-1.2,0.4c-2,0.6-3.7,1.3-5.3,1.9c-1.9,0.8-3.9,1.8-6.3,3.1l-1.1,0.6l-1,0.6
				l0,1.2l0.3,14.2c0.1,3.1-2.3,5.7-5.4,5.7l-14.2,0.3l-1.2,0l-0.5,1.1l-0.6,1.1c-2,4.1-3.5,7.9-4.5,11.7L105,149l-0.3,1.1l0.9,0.8
				l10.2,9.8c0.5,0.5,0.9,1.1,1.2,1.8c0.9,2.1,0.5,4.4-1.1,6.1l-9.8,10.2l-0.8,0.9l0.4,1.1l0.4,1.2c0.6,1.9,1.3,3.6,1.9,5.2
				c0.7,1.6,1.4,3.1,2.2,4.7c0.2,0.5,0.5,1,0.7,1.5l0,0.1l0,0.1l0.6,1.1l0.6,1l1.2,0l14.2-0.3c1.5,0,3,0.6,4,1.6l0,0l0,0
				c0.5,0.5,1,1.1,1.2,1.7c0.3,0.6,0.4,1.3,0.4,2l0.3,14.2l0,1.2l1.1,0.5l1.1,0.6c3.9,1.9,7.7,3.4,11.7,4.5l1.2,0.3l1.1,0.3l0.8-0.8
				l9.8-10.2c1.1-1.1,2.5-1.7,4.1-1.7c1.4,0,2.8,0.5,3.8,1.5l10.2,9.9l0.9,0.8l1.1-0.4l1.2-0.4c2-0.6,3.7-1.3,5.3-1.9
				c1.9-0.8,3.9-1.8,6.3-3.1l1.1-0.6l1-0.6l0-1.2l-0.3-14.2c-0.1-3.1,2.3-5.7,5.4-5.7l14.2-0.3l1.2,0l0.5-1.1l0.6-1.1
				c2-4.1,3.5-7.9,4.5-11.7l0.3-1.2l0.3-1.1l-0.9-0.8l-10.2-9.7c-0.5-0.5-0.9-1.1-1.2-1.8c-0.9-2.1-0.5-4.4,1.1-6.1l9.9-10.2
				l0.8-0.9l-0.4-1.1l-0.4-1.2c-0.5-1.7-1.2-3.4-1.9-5.1c-0.9-2.2-2-4.3-3.2-6.4l-0.6-1.1l-0.6-1l-1.2,0l-14.2,0.3
				c-1.5,0-3-0.6-4-1.6c-0.5-0.5-0.9-1.1-1.2-1.8c-0.3-0.7-0.4-1.4-0.4-2.1l-0.3-14.2l0-1.2l-1.1-0.5l-1.1-0.6
				c-3.9-1.9-7.7-3.4-11.7-4.5l-1.2-0.3L177,104.9L177,104.9z M163.5,185.8c-9,0-17-5.3-20.5-13.6c-2.3-5.5-2.4-11.5-0.2-17.1
				s6.5-9.9,11.9-12.2c2.8-1.2,5.7-1.8,8.7-1.8c9,0,17,5.3,20.5,13.6c2.3,5.5,2.4,11.5,0.2,17.1c-2.2,5.5-6.5,9.9-11.9,12.2
				C169.4,185.2,166.5,185.8,163.5,185.8L163.5,185.8z"/>
		</g>
		<g id="con_smallCog" style="display:inline;">
			<path style="fill:#BCDE24;" d="M96.2,128.5c-3-0.8-5.9-1.9-8.8-3.4l-1.4-0.7L85.8,113c0-0.6-0.1-1.2-0.4-1.7c-0.3-0.6-0.6-1.1-1.1-1.5
				c-0.9-0.9-2.2-1.4-3.5-1.4l-11.4,0.3l-0.8-1.3l-0.6-1.2c-0.6-1.2-1.2-2.3-1.7-3.5c-0.5-1.2-1-2.5-1.4-3.9l-0.5-1.5l7.9-8.2
				c1.3-1.4,1.7-3.4,0.9-5.2c-0.3-0.6-0.6-1.1-1.1-1.6l-8.2-7.8l0.4-1.5c0.8-2.9,1.9-5.8,3.4-8.8l0.7-1.4l11.4-0.3
				c2.6-0.1,4.7-2.2,4.6-4.9l-0.2-11.4l1.3-0.8c1.8-1,3.3-1.8,4.7-2.4c1.2-0.5,2.5-1,4-1.5l1.5-0.5l8.2,7.9c0.9,0.8,2,1.3,3.3,1.3
				c1.3,0,2.5-0.5,3.5-1.5l7.8-8.1l1.5,0.4c3,0.8,5.9,1.9,8.8,3.4l1.4,0.7l0.2,11.4c0,0.6,0.1,1.2,0.4,1.8c0.2,0.6,0.6,1.1,1,1.5
				c0.9,0.9,2.1,1.4,3.4,1.4l11.4-0.3l0.8,1.3c0.9,1.7,1.7,3.2,2.4,4.9c0.5,1.3,1,2.5,1.4,3.8l0.5,1.5l-7.9,8.2
				c-1.3,1.4-1.7,3.4-0.9,5.2c0.3,0.6,0.6,1.1,1.1,1.6l8.2,7.8l-0.4,1.5c-0.8,2.9-1.9,5.8-3.4,8.8l-0.7,1.4l-11.4,0.3
				c-2.6,0.1-4.7,2.2-4.6,4.9l0.2,11.4l-1.3,0.8c-1.8,1-3.3,1.8-4.7,2.4c-1.2,0.5-2.5,1-4,1.5l-1.5,0.5l-8.2-7.9
				c-0.9-0.8-2-1.3-3.3-1.3c-1.3,0-2.5,0.5-3.5,1.5l-7.9,8.2L96.2,128.5z M108.2,67.4c-2.3,0-4.6,0.5-6.8,1.4
				c-4.3,1.8-7.6,5.2-9.3,9.5c-1.7,4.3-1.7,9.1,0.1,13.4c2.7,6.4,9.1,10.6,16.1,10.6c2.3,0,4.6-0.5,6.8-1.4c8.9-3.8,13-14,9.2-22.9
				C121.5,71.6,115.2,67.4,108.2,67.4z"/>
			<path style="fill:#0071CB;" d="M119,42l0.9,0.2c3,0.8,5.9,1.9,8.6,3.3l0.8,0.4l0.2,10.8c0,0.7,0.2,1.5,0.5,2.1c0.3,0.7,0.7,1.3,1.3,1.8
				c1.1,1.1,2.6,1.6,4.1,1.6l10.8-0.3l0.5,0.8c0.9,1.6,1.7,3.2,2.4,4.7c0.5,1.2,1,2.5,1.4,3.7l0.3,0.9l-7.5,7.7
				c-1.6,1.7-2,4.2-1.1,6.2c0.3,0.7,0.7,1.3,1.3,1.9l7.8,7.4l-0.2,0.9c-0.8,3-2,5.9-3.3,8.6l-0.4,0.8l-10.8,0.3
				c-3.2,0.1-5.7,2.7-5.6,5.9l0.2,10.8l-0.8,0.5c-1.6,0.9-3.1,1.7-4.6,2.3c-1.3,0.5-2.6,1-3.9,1.4l-0.9,0.3l-7.8-7.5
				c-1.1-1.1-2.5-1.6-4-1.6c-1.5,0-3,0.6-4.2,1.8l-7.5,7.7l-0.9-0.2c-3-0.8-5.9-1.9-8.6-3.3l-0.8-0.4L86.8,113
				c0-0.7-0.2-1.5-0.4-2.1c-0.3-0.7-0.7-1.3-1.3-1.9c-1.1-1.1-2.6-1.6-4.1-1.6l-10.8,0.3l-0.5-0.8c-0.7-1.5-1.5-3.1-2.2-4.6
				c-0.5-1.3-1-2.6-1.4-3.8l-0.3-0.9l7.5-7.7c1.6-1.7,2-4.2,1.1-6.2c-0.3-0.7-0.7-1.3-1.3-1.9l-7.8-7.4l0.2-0.9c0.8-3,2-5.9,3.3-8.6
				l0.4-0.8l10.8-0.3c3.2-0.1,5.7-2.7,5.6-5.9l-0.2-10.8l0.8-0.5c1.6-0.9,3.1-1.7,4.6-2.3c1.3-0.5,2.6-1,3.9-1.4l0.9-0.3l7.8,7.5
				c1.1,1.1,2.5,1.6,4,1.6c1.5,0,3-0.6,4.2-1.8L119,42 M108.3,103.3c2.4,0,4.9-0.5,7.2-1.5c9.4-4,13.7-14.9,9.7-24.2
				c-3-7-9.8-11.2-17-11.2c-2.4,0-4.9,0.5-7.2,1.5c-9.4,4-13.7,14.9-9.7,24.2C94.2,99.1,101.1,103.3,108.3,103.3 M118.4,39.8
				l-0.8,0.8l-7.4,7.7c-0.7,0.7-1.7,1.1-2.7,1.1c-1,0-1.9-0.4-2.6-1L97,41l-0.9-0.8L95,40.5l-0.9,0.3c-1.5,0.5-2.8,1-4,1.5
				c-1.5,0.6-3,1.4-4.8,2.4l-0.8,0.5l-1,0.6l0,1.2l0.2,10.8c0,2.1-1.6,3.8-3.7,3.9l-10.8,0.3l-1.2,0L67.5,63l-0.4,0.8
				c-1.5,3.1-2.7,6.1-3.5,9l-0.2,0.9l-0.3,1.1l0.9,0.8l7.8,7.4c0.3,0.3,0.6,0.8,0.8,1.2c0.6,1.4,0.3,3-0.7,4.1l-7.5,7.7L63.5,97
				l0.4,1.1l0.3,0.9c0.5,1.5,1,2.8,1.5,4c0.5,1.2,1.1,2.4,1.7,3.6c0.2,0.4,0.4,0.8,0.5,1.1l0,0.1l0,0.1l0.5,0.8l0.6,1l1.2,0
				l10.8-0.3c1,0,2,0.4,2.7,1.1l0,0l0,0c0.4,0.3,0.6,0.7,0.8,1.2c0.2,0.4,0.3,0.9,0.3,1.4l0.2,10.8l0,1.2l1.1,0.5L87,126
				c3,1.5,5.9,2.6,9,3.5l0.9,0.2L98,130l0.8-0.8l7.5-7.7c0.7-0.7,1.7-1.1,2.7-1.1c1,0,1.9,0.4,2.6,1l7.8,7.5l0.9,0.8l1.1-0.4
				l0.9-0.3c1.5-0.5,2.8-1,4-1.5c1.5-0.6,3-1.4,4.8-2.4l0.8-0.5l1-0.6l0-1.2l-0.2-10.8c0-2.1,1.6-3.8,3.7-3.9l10.8-0.3l1.2,0
				l0.5-1.1l0.4-0.8c1.5-3.1,2.7-6.1,3.5-9l0.2-0.9l0.3-1.1l-0.9-0.8l-7.8-7.4c-0.3-0.3-0.6-0.8-0.8-1.2c-0.6-1.4-0.3-3,0.7-4.1
				l7.5-7.7l0.8-0.9l-0.4-1.1l-0.3-0.9c-0.4-1.3-0.9-2.6-1.4-3.9c-0.7-1.7-1.5-3.3-2.5-4.9l-0.5-0.8l-0.6-1l-1.2,0l-10.8,0.3
				c-1,0-2-0.4-2.7-1.1c-0.4-0.3-0.6-0.7-0.8-1.2c-0.2-0.4-0.3-0.9-0.3-1.4L131.4,46l0-1.2l-1.1-0.5l-0.8-0.4c-3-1.5-5.9-2.6-9-3.5
				l-0.9-0.2L118.4,39.8L118.4,39.8z M108.3,101.3c-6.6,0-12.6-3.9-15.2-10c-1.7-4-1.8-8.5-0.1-12.6c1.6-4.1,4.8-7.3,8.8-9
				c2.1-0.9,4.2-1.3,6.4-1.3c6.6,0,12.6,3.9,15.2,10c1.7,4,1.8,8.5,0.1,12.6c-1.6,4.1-4.8,7.3-8.8,9
				C112.6,100.9,110.5,101.3,108.3,101.3L108.3,101.3z"/>
		</g>
	</g>
	<g id="entitlement">
		<g style="display:inline;">
			<polygon style="fill:#9ADAFF;" points="130.7,20 53.3,20 53.3,220 186.7,220 186.7,76 			"/>
		</g>
		<g style="display:inline;">
			<path style="fill:#0B70B7;" d="M82.5,178.5h75c4.6,0,8.3,3.7,8.3,8.3v0.1c0,4.6-3.7,8.3-8.3,8.3h-75c-4.6,0-8.3-3.7-8.3-8.3v-0.1
				C74.2,182.3,77.9,178.5,82.5,178.5z"/>
		</g>
		<g style="display:inline;">
			<path style="fill:#0B70B7;" d="M82.5,144.9h75c4.6,0,8.3,3.7,8.3,8.3v0.1c0,4.6-3.7,8.3-8.3,8.3h-75c-4.6,0-8.3-3.7-8.3-8.3v-0.1
				C74.2,148.7,77.9,144.9,82.5,144.9z"/>
		</g>
		<g style="display:inline;">
			<path style="fill:#0B70B7;" d="M82.5,111.3h75c4.6,0,8.3,3.7,8.3,8.3v0.1c0,4.6-3.7,8.3-8.3,8.3h-75c-4.6,0-8.3-3.7-8.3-8.3v-0.1
				C74.2,115.1,77.9,111.3,82.5,111.3z"/>
		</g>
		<g style="display:inline;">
			<path style="fill:#0B70B7;" d="M82.5,78h75c4.6,0,8.3,3.7,8.3,8.3v0.1c0,4.6-3.7,8.3-8.3,8.3h-75c-4.6,0-8.3-3.7-8.3-8.3v-0.1
				C74.2,81.7,77.9,78,82.5,78z"/>
		</g>
		<g style="display:inline;">
			<path style="fill:#DCF1FF;" d="M137.2,25c2.3,2.6,3.6,5.9,3.6,9.6v6.3v16.7c0,4.6,3.7,8.3,8.3,8.3h16.7h6.3c3.7,0,7,1.4,9.6,3.6L137.2,25z
				"/>
		</g>
	</g>
	<g id="tools">
		<g id="spanner" style="display:inline;">
			<path style="fill:#57C3F4;" d="M149.8,128.7c17.7-16.4,34.4-30.5,34.4-30.5s2.9,1.3,3,1.3c6.8,1.3,14,0.1,20.3-3.9
				c6.7-4.3,10.8-10.7,12.4-17.8c0.7-3.3-2.9-5.8-5.7-3.9l-16.9,10.7c0,0-3.6,2.3-10.7-9.1c-7.2-11.3-3.7-13.5-3.7-13.5l16.9-10.7
				c2.8-1.8,2.1-6.1-1.2-6.8c-7-1.6-14.5-0.6-21.1,3.5c-10.2,6.3-15,17.8-13.1,28.7c-0.1,0.1,0.6,3,0.5,3.1c0,0-14.3,16.3-30.3,33.8
				l-20.6,21.7c-1.5,1.5-3,3-4.6,4.6c-36.2,36.1-60.7,52.7-60.7,52.7c-6.3,6.3-6.3,16.4,0,22.7s16.4,6.3,22.7,0
				c0,0,16-25.1,52.2-61.2c1.6-1.6,3.1-3.1,4.6-4.6L149.8,128.7z M66.1,209.5c-3.2,3.2-8.3,3.2-11.5,0c-3.2-3.2-3.2-8.3,0-11.4
				c3.2-3.2,8.3-3.2,11.5,0C69.2,201.2,69.2,206.4,66.1,209.5z"/>
			<path style="fill:#000000;" d="M60.2,221c-4.3,0-8.7-1.7-12.1-5c-3.3-3.2-5-7.5-5-12c0-4.6,1.8-8.8,5-12l0.1-0.1
				c0.2-0.2,24.9-17,60.6-52.5l4.6-4.6L134,113c14.6-16,27.9-31.1,30-33.5c-0.1-0.3-0.1-0.7-0.2-1c-0.2-0.8-0.3-1.3-0.3-1.7
				c-2-11.7,3.3-23.4,13.6-29.7c6.5-4,14.3-5.3,21.8-3.6c1.9,0.4,3.3,1.9,3.6,3.9c0.3,1.9-0.5,3.8-2.2,4.8l-16.9,10.7l0,0
				c0,0-2.2,2.3,4,12.1c5.2,8.3,8.5,9.1,9.3,8.7l16.9-10.6c1.6-1.1,3.6-1,5.2,0c1.6,1.1,2.4,3,2,4.9c-1.7,7.7-6.3,14.2-12.9,18.4
				c-6.2,4-13.6,5.4-20.9,4.1c-0.2,0-0.6-0.2-2.7-1.2c-2.9,2.4-18.1,15.4-33.9,30.1L129,150.2l-4.6,4.6
				c-35.7,35.7-51.9,60.8-52,61.1l-0.1,0.2C68.9,219.4,64.5,221,60.2,221z M49.5,193.4c-2.8,2.8-4.4,6.6-4.4,10.6
				c0,4,1.6,7.8,4.5,10.6c6,5.9,15.3,5.9,21.3,0.1c1.1-1.8,17.5-26.6,52.2-61.3l4.6-4.6l21.5-20.8c17.5-16.2,34.3-30.4,34.5-30.5
				l0.5-0.4l0.6,0.3c1.2,0.5,2.5,1.1,2.8,1.3c6.8,1.2,13.7-0.1,19.5-3.8c6.1-3.9,10.4-10,12-17.1c0.3-1.3-0.4-2.3-1.2-2.8
				c-0.9-0.6-2-0.6-3,0l-16.9,10.7c-0.2,0.1-1,0.5-2.4,0.2c-2.8-0.7-6.1-3.9-9.7-9.6c-3.7-5.8-5.2-10.1-4.5-12.9
				c0.3-1.4,1-1.9,1.2-2l16.9-10.7c1.1-0.7,1.4-1.9,1.2-2.8c-0.1-0.9-0.8-1.9-2.1-2.3c-7-1.6-14.3-0.4-20.3,3.4
				c-9.4,5.8-14.5,16.9-12.6,27.7l0.1,0.5l0,0c0.1,0.3,0.1,0.7,0.2,1c0.3,1.8,0.4,2,0,2.4c-0.1,0.1-14.4,16.4-30.3,33.8l-20.6,21.7
				l-4.6,4.6C75.5,175.4,51,192.3,49.5,193.4z M60.4,212.9c-2.3,0-4.6-0.9-6.5-2.7c-1.7-1.7-2.7-4.1-2.7-6.5c0-2.4,1-4.7,2.7-6.3
				c3.6-3.6,9.2-3.6,12.9,0c1.7,1.7,2.7,4.1,2.7,6.5c0,2.4-1,4.7-2.7,6.3C65,212,62.7,212.9,60.4,212.9z M60.3,196.7
				c-1.8,0-3.6,0.7-5,2.1c-1.3,1.3-2.1,3-2.1,4.9c0,1.9,0.7,3.7,2.1,5.1c2.9,2.8,7.3,2.8,10.1,0l0,0c1.3-1.3,2.1-3,2.1-4.9
				c0-1.9-0.7-3.7-2.1-5.1C63.9,197.4,62.1,196.7,60.3,196.7z"/>
		</g>
		<g id="hammer" style="display:inline;">
			<path style="fill:#000000;" d="M201,222c-1.8,0-3.7-0.7-5-2.1l-69.1-69L99.8,124c-1.8-1.8-1.8-4.6,0-6.4c0.2-0.2,0.2-0.5,0-0.8l-24-24
				c-0.4-0.4-0.8-0.6-1.4-0.6c-0.5,0-1.1,0.2-1.5,0.6l-0.8,0.8c-1.3,1.3-3.1,2-5,2c-1.8,0-3.5-0.7-4.7-2c-1.1-1.1-2.9-1.1-4,0
				l-0.8,0.8c-3,3-3,7.8,0,10.8l1.4,1.4l-7.4,7.4c-4,4-10.6,4-14.6,0L20.9,97.8C19.1,96,18,93.6,18,90.9c0-2.7,1-5.2,2.9-7.1
				l7.8-7.8l1.4,1.4c2.4,2.4,6.2,2.4,8.7,0l1.8-1.8c0.5-0.5,0.8-1.2,0.8-1.9c0-0.7-0.3-1.3-0.7-1.7c-2.2-2.2-2.2-5.8,0-8l18.5-18.5
				l9.4-9.6c2.5-2.4,15.1-12.3,30.9-16.6c14.6-4.1,31.9,2.2,36.8,4.2l0.2,0.1c1.7,0.7,2.3,2.7,2,4.4c-0.3,1.6-1.4,2.6-2.8,2.6
				c-0.1,0-0.4,0-0.8,0c-2.1,0-8.4-0.2-11.4,0.5c-0.7,0.1-1.5,0.2-2.4,0.3c-4.1,0.5-11.1,1.3-18.5,8.7c-3.8,3.7-6.3,7.1-7.7,9.3
				c-2.3,3.5-1.9,8,1.1,10.9l0.1,0.1c1.2,1.1,1.9,2.8,1.9,4.5c0,1.7-0.7,3.4-1.9,4.5l-3.5,3.5c-0.4,0.4-0.6,0.9-0.6,1.4
				c0,0.5,0.2,1,0.6,1.4l24,23.9c0.1,0.1,0.3,0.2,0.4,0.2c0.1,0,0.3,0,0.4-0.2c0.9-0.9,2-1.3,3.2-1.3c1.2,0,2.4,0.5,3.2,1.3
				l12.3,12.4l15.1,15l68.7,68.6c2.3,2.3,2.7,5.7,1.3,8.4l0.4,0.4l-16.7,16.8l-0.4-0.4C203.4,221.7,202.2,222,201,222z M74.4,88.2
				C74.5,88.2,74.5,88.2,74.4,88.2c1.7,0,3.2,0.7,4.3,1.8l24,24c0.9,0.9,1.3,2,1.3,3.2s-0.5,2.3-1.3,3.2c-0.2,0.2-0.2,0.5,0,0.8
				l27.1,26.9l69.1,69c1.2,1.2,3.2,1.2,4.4,0l1.4-1.4l0.2,0.2l11.1-11.1l-0.1-0.1l1.4-1.4c1.2-1.2,1.2-3.2-0.1-4.5l-68.7-68.6
				l-15.1-15L121,102.7c-0.2-0.2-0.6-0.2-0.8,0c-0.9,0.9-2,1.3-3.2,1.3c-1.2,0-2.4-0.5-3.2-1.3l-24-23.9c-1.1-1.1-1.8-2.7-1.8-4.3
				s0.6-3.1,1.8-4.2l3.6-3.6c0.5-0.5,0.7-1,0.7-1.7c0-0.6-0.2-1.2-0.7-1.6l-0.1-0.1c-4.2-4.2-4.9-10.9-1.6-15.9
				c1.5-2.4,4.2-6,8.3-10c8.4-8.4,16.2-9.3,20.8-9.8c0.8-0.1,1.5-0.2,2-0.3c2.7-0.6,7.4-0.6,10.4-0.6c-6.1-2.3-20.5-6.9-32.6-3.4
				c-14.8,4.1-27,13.5-29.2,15.6L62,48.4L43.5,66.9c-0.6,0.6-0.6,1.7,0,2.3c1.2,1.2,1.9,2.8,1.9,4.5c0,1.8-0.7,3.5-1.9,4.7l-1.8,1.8
				c-3.6,3.5-8.9,3.9-12.8,1.3l-5.1,5.1c-1.1,1.1-1.7,2.6-1.7,4.2c0,1.5,0.6,3,1.7,4l16.2,16.2c2.5,2.5,6.5,2.5,9,0l4.7-4.7
				c-3.2-4.5-2.8-10.8,1.3-14.9l0.8-0.8c2.6-2.6,6.9-2.7,9.6,0c0.5,0.6,1.2,0.8,2,0.9c0.8,0,1.5-0.3,2.1-0.8l0.8-0.8
				C71.3,88.8,72.8,88.2,74.4,88.2z M135,27.4C135,27.4,135,27.4,135,27.4L135,27.4z"/>
			<path style="fill:#FFDD43;" d="M115.1,101.3l-24-23.9c-1.6-1.6-1.6-4.1,0-5.7L71.6,91.4c1.6-1.6,4.2-1.6,5.7,0l24,24c1,1,1,2.6,0,3.6
				l17.5-17.7C117.7,102.3,116.1,102.3,115.1,101.3z"/>
			<path style="fill:#58B6DF;" d="M94.6,68.1c1.8-1.7,1.8-4.5,0-6.2l-0.1-0.1c-3.6-3.6-4.2-9.2-1.3-13.4c1.8-2.8,4.5-6.3,8-9.7
				c9.4-9.4,18.1-8.8,21.8-9.6c3.8-0.8,11.7-0.5,12.7-0.5s1.3-2.7,0-3.2s-20.2-8.7-35.8-4.3c-15.8,4.3-28.1,14.3-30,16.1L60.6,47
				L48.3,59.2l-6.3,6.3c-1.4,1.4-1.4,3.8,0,5.2c1.8,1.8,1.8,4.7,0,6.4l-1.8,1.8c-3.3,3.2-8.3,3.2-11.5,0l-6.4,6.4
				c-3.1,3.1-3.1,8.1,0,11.1l16.2,16.2c3.3,3.3,8.6,3.3,11.8,0l6-6c-3.8-3.8-3.8-9.8,0-13.6l0.8-0.8c1.9-1.9,4.9-1.8,6.8,0
				c1.8,1.9,5,1.8,6.8,0l0.8-0.8l19.5-19.7L94.6,68.1z"/>
			<path style="fill:#0C68B3;" d="M218.5,197.3l-68.7-68.6l-15.1-15l-12.3-12.4c-1-1-2.7-1-3.7,0L101.2,119c-1,1-1,2.6,0,3.6l12.9,12.8
				l14.2,14.1l69.1,69c2,2,5.3,2,7.3,0l0.2,0.2l13.9-13.9l-0.2-0.2C220.5,202.6,220.5,199.3,218.5,197.3z"/>
		</g>
	</g>
	<g id="reconcilliation">
		<g style="display:inline;">
			<path style="fill:#BCDE24;" d="M52.9,61.7L52.9,61.7l-32.8,91.6c7,16.4,23.2,27.8,42.1,27.8s34.2-11.5,41.1-27.8L73.6,70H61.2
				C56.6,70,52.9,66.3,52.9,61.7z M85.6,153.3H38l24.1-67L85.6,153.3z"/>
		</g>
		<g style="display:inline;">
			<path style="fill:#BCDE24;" d="M177.9,181.2c18.9,0,35.2-11.5,42.1-27.8l-32.8-90.9c-0.3,4.3-3.9,7.7-8.3,7.7h-12.6l-29.5,83.3
				C143.7,169.7,158.9,181.2,177.9,181.2z M177.7,86.3l24.3,67h-47.5L177.7,86.3z"/>
		</g>
		<g style="display:inline;">
			<path style="fill:#FFD00E;" d="M61.9,179.5c-16.9,0-32.3-10.1-39-25.5h78C94.2,169.3,78.9,179.5,61.9,179.5z"/>
			<path style="fill:#000000;" d="M97.8,155.9c-7,13.1-20.7,21.5-35.8,21.5s-28.8-8.4-35.8-21.5H97.8 M103.9,151.9H20
				c6.2,17.2,22.6,29.5,41.9,29.5S97.7,169.1,103.9,151.9L103.9,151.9z"/>
		</g>
		<g style="display:inline;">
			<path style="fill:#FFD00E;" d="M178.1,179.5c-16.9,0-32.3-10.1-39-25.5h78C210.3,169.3,195,179.5,178.1,179.5z"/>
			<path style="fill:#000000;" d="M213.9,155.9c-7,13.1-20.7,21.5-35.8,21.5c-15.1,0-28.8-8.4-35.8-21.5H213.9 M220,151.9h-83.9
				c6.2,17.2,22.6,29.5,41.9,29.5S213.8,169.1,220,151.9L220,151.9z"/>
		</g>
		<path style="display:inline;fill:#000000;" d="M111.7,53.4L111.7,53.4l-50,0c-0.3,0-0.6,0-0.9,0.1c0.1,0,0.2,0,0.4,0H111.7z"/>
		<path style="display:inline;fill:#000000;" d="M119.2,20c-2.2,0.2-4.2,1.3-5.6,3C115,21.4,117,20.3,119.2,20z"/>
		<path style="display:inline;fill:#000000;" d="M178.8,53.4c-0.2,0-0.5,0-0.7,0h-49.7v0H178.8z"/>
		<path style="display:inline;fill:#000000;" d="M127.9,25.6c0.1,0.4,0.2,0.7,0.3,1.1C128.1,26.3,128,25.9,127.9,25.6z"/>
		<path style="display:inline;fill:#000000;" d="M65,220c-0.7-0.1-1.3-0.2-1.9-0.4C63.7,219.7,64.3,219.9,65,220z"/>
		<path style="display:inline;fill:#000000;" d="M63.1,203.8c0.6-0.2,1.2-0.4,1.9-0.4C64.3,203.4,63.7,203.6,63.1,203.8z"/>
		<path style="display:inline;fill:#000000;" d="M111.9,26.7c0.2-1.1,0.7-2.1,1.3-3C112.5,24.6,112.1,25.6,111.9,26.7z"/>
		<path style="display:inline;fill:#0071CB;" d="M185.9,58.9l1.3,3.5c0-0.2,0-0.4,0-0.7c0-4.6-3.7-8.3-8.3-8.3h-0.1C182.1,53.7,184.8,55.9,185.9,58.9z"/>
		<path style="display:inline;fill:#0071CB;" d="M127.9,25.6c-1.1-3.2-4.2-5.6-7.9-5.6C123.7,20,126.8,22.3,127.9,25.6z"/>
		<path style="display:inline;fill:#0071CB;" d="M182.3,211.7c0,4.6-3.7,8.3-8.3,8.3h0.3c4.6,0,8.3-3.7,8.3-8.3c0-4.6-3.7-8.3-8.3-8.3H174
			C178.6,203.3,182.3,207.1,182.3,211.7z"/>
		<path style="display:inline;fill:#0071CB;" d="M60.9,53.4c-4.4,0.2-8,3.8-8,8.3l1-2.8C55,55.9,57.6,53.7,60.9,53.4z"/>
		<polygon style="display:inline;fill:#0071CB;" points="128.4,70 128.4,70 166.2,70 166.2,70 		"/>
		<path style="display:inline;fill:#0071CB;" d="M57.5,211.7c0,3.6,2.3,6.7,5.6,7.9C59.8,218.4,57.5,215.3,57.5,211.7z"/>
		<path style="display:inline;fill:#0071CB;" d="M63.1,203.8c-3.2,1.1-5.6,4.2-5.6,7.9C57.5,208,59.8,205,63.1,203.8z"/>
		<polygon style="display:inline;fill:#0071CB;" points="73.6,70 73.6,70 111.7,70 111.7,70 		"/>
		<path style="display:inline;fill:#0071CB;" d="M187.2,62.4l-1.3-3.5c-1.1-3-3.8-5.2-7.1-5.5h-50.4v0v-25c0-0.6-0.1-1.1-0.2-1.7c-0.1-0.4-0.2-0.7-0.3-1.1
			c-1.1-3.2-4.2-5.6-7.9-5.6c-0.3,0-0.6,0-0.9,0c-2.2,0.2-4.2,1.3-5.6,3c-0.2,0.2-0.3,0.4-0.5,0.6c-0.6,0.9-1,1.9-1.3,3
			c-0.1,0.5-0.2,1.1-0.2,1.7v25v0H61.2c-0.1,0-0.2,0-0.4,0c-3.2,0.3-5.9,2.5-6.9,5.5l-1,2.8l0,0c0,4.6,3.7,8.3,8.3,8.3h12.4l0,0
			h38.1v0v133.3H65.8c-0.3,0-0.6,0-0.9,0c-0.7,0.1-1.3,0.2-1.9,0.4c-3.2,1.1-5.6,4.2-5.6,7.9s2.3,6.7,5.6,7.9
			c0.6,0.2,1.2,0.4,1.9,0.4c0.3,0,0.6,0,0.9,0H174c4.6,0,8.3-3.7,8.3-8.3s-3.7-8.3-8.3-8.3h-45.6V70v0h37.9l0,0h12.6
			C183.2,70,186.8,66.7,187.2,62.4z"/>
	</g>
	<g id="data_management">
		<path style="display:inline;fill:#36A9E1;" d="M182.5,25h-6.9H64.5h-6.9l-4.9,4.9L24.9,57.7L20,62.5v6.9v128.9V215h16.7h166.7H220v-16.7V69.4v-6.9
			l-4.9-4.9l-27.7-27.8L182.5,25L182.5,25z"/>
		<g style="display:inline;">
			<polygon style="fill:#0064A8;" points="203.3,59.4 36.7,59.4 64.5,31.7 175.6,31.7 			"/>
		</g>
		<g style="display:inline;">
			<polygon style="fill:#0064A8;" points="36.7,73.4 36.7,128.9 81.4,128.9 175.5,128.9 203.3,128.9 203.3,73.4 			"/>
		</g>
		<g style="display:inline;">
			<rect x="36.7" y="142.8" style="fill:#0064A8;" width="166.6" height="55.5"/>
		</g>
		<polygon style="display:inline;fill:#6ACCEF;" points="189.4,115 50.6,115 50.6,87.3 99.2,87.3 99.2,101.1 140.8,101.1 140.8,87.3 189.4,87.3 		"/>
		<polygon style="display:inline;fill:#6ACCEF;" points="50.6,156.7 99.2,156.7 99.2,170.6 140.8,170.6 140.8,156.7 189.4,156.7 189.4,184.4 50.6,184.4 		
			"/>
		<polygon style="display:inline;fill:#FFFFFF;" points="166.2,106.9 53.5,142.8 177.7,142.8 		"/>
	</g>
</g>
</svg>
