<svg version="1.1" xmlns="http://www.w3.org/2000/svg" xmlns:xlink="http://www.w3.org/1999/xlink" x="0px" y="0px"
	 viewBox="0 0 240 240" style="enable-background:new 0 0 240 240;" xml:space="preserve">

<g class="frame">
	<path d="M220,240H20c-11,0-20-9-20-20V20C0,9,9,0,20,0h200c11,0,20,9,20,20v200C240,231,231,240,220,240z"/>
</g>
<g id="business_intelligence">
  <path style="display:inline;fill:#2D90D0;" d="M120,44.8c-66.2,0-120,53.8-120,120c0,5.5,4.5,10,10,10h40.2c5.5,0,10-4.5,10-10c0-33,26.8-59.8,59.8-59.8
    s59.8,26.8,59.8,59.8c0,5.5,4.5,10,10,10H230c5.5,0,10-4.5,10-10C240,98.6,186.2,44.8,120,44.8z"/>
  <path style="display:inline;fill:#A5BC20;" d="M138.3,183.7L138.3,183.7l16.4-35.8l0,0c1.8-4.1,0.8-9.1-2.9-12.1c-3.7-3-8.8-3-12.4-0.3l0,0l-31.5,23l0,0
    c-1.3,1-2.6,2.1-3.7,3.5c-7.1,8.7-5.7,21.5,3,28.6s21.5,5.7,28.6-3C136.8,186.4,137.6,185.1,138.3,183.7z"/>
  <g style="display:inline;">
    <path style="fill:#FFD00E;" d="M168.6,101.6c-11-8.5-24.2-14.1-38.6-15.9V65.3c20,2,38.2,9.9,53,21.9L168.6,101.6z M71.4,101.6L57,87.2
      c14.8-12,33-19.9,53-21.9v20.3C95.6,87.4,82.4,93.1,71.4,101.6z M40.8,154.8H20.5c2-20.2,10.1-38.7,22.3-53.5l14.3,14.3
      C48.5,126.7,42.6,140.1,40.8,154.8z M199.2,154.8c-1.8-14.7-7.7-28.1-16.4-39.2l14.3-14.3c12.3,14.9,20.3,33.3,22.3,53.5H199.2z
        M119.7,175.1c-0.1-0.1-0.2-0.3,0-0.5c0.1-0.1,0.3-0.2,0.5,0c0.1,0.1,0.2,0.3,0,0.5C120.1,175.2,119.9,175.2,119.7,175.1z"/>
  </g>
</g>
</svg>
