<svg version="1.1" xmlns="http://www.w3.org/2000/svg" xmlns:xlink="http://www.w3.org/1999/xlink" x="0px" y="0px"
	 viewBox="0 0 240 240" style="enable-background:new 0 0 240 240;" xml:space="preserve">

<g class="frame">
	<path d="M220,240H20c-11,0-20-9-20-20V20C0,9,9,0,20,0h200c11,0,20,9,20,20v200C240,231,231,240,220,240z"/>
</g>
	<g id="configuration">
		<path id="con_list" style="display:inline;fill:#63BBE2;" d="M186.6,53.3H70V20h116.6V53.3z M186.6,120H70V86.7h116.6V120z M186.6,186.6H70v-33.3h116.6
			V186.6z M53.3,20H20v33.3h33.3V20z M20,120h33.3V86.7H20V120z M20,185.9h33.3v-33.3H20V185.9z"/>
		<g id="con_largeCog" style="display:inline;">
			<path style="fill:#FFD00E;" d="M147.8,220.6c-4-1.1-7.7-2.5-11.5-4.4l-1.6-0.8l-0.3-14.8c0-0.8-0.2-1.7-0.5-2.4c-0.3-0.8-0.9-1.5-1.5-2.1
				c-1.3-1.2-3-1.9-4.8-1.9l-14.8,0.3l-0.9-1.6l-0.8-1.6c-0.7-1.5-1.5-3.1-2.2-4.6c-0.7-1.5-1.3-3.2-1.9-5.1l-0.6-1.7l10.2-10.6
				c1.8-1.9,2.3-4.7,1.3-7.1c-0.3-0.8-0.8-1.5-1.5-2.2l-10.7-10.2l0.5-1.7c1-3.8,2.5-7.5,4.4-11.5l0.8-1.7l14.8-0.3
				c3.7-0.1,6.5-3.1,6.4-6.8l-0.3-14.8l1.6-0.9c2.3-1.3,4.3-2.3,6.2-3.1c1.5-0.6,3.2-1.3,5.2-1.9l1.7-0.6l10.7,10.3
				c1.2,1.2,2.8,1.8,4.5,1.8c1.8,0,3.5-0.7,4.8-2l10.2-10.6l1.7,0.5c4,1.1,7.7,2.5,11.5,4.4l1.6,0.8l0.3,14.8c0,0.9,0.2,1.7,0.5,2.5
				c0.3,0.8,0.8,1.5,1.5,2.1c1.3,1.2,2.9,1.9,4.7,1.9l14.8-0.3l0.9,1.6c1.2,2.2,2.3,4.2,3.2,6.4c0.7,1.6,1.3,3.3,1.9,5l0.6,1.7
				l-10.3,10.6c-1.8,1.9-2.3,4.7-1.3,7.1c0.3,0.8,0.8,1.5,1.5,2.2l10.6,10.1l-0.5,1.7c-1,3.8-2.5,7.5-4.4,11.5l-0.8,1.7l-14.8,0.3
				c-3.7,0.1-6.5,3.1-6.4,6.8l0.3,14.8l-1.6,0.9c-2.3,1.3-4.3,2.3-6.2,3.1c-1.5,0.7-3.2,1.3-5.2,1.9l-1.7,0.6l-10.7-10.3
				c-1.2-1.2-2.8-1.8-4.5-1.8c-1.8,0-3.5,0.7-4.8,2l-10.2,10.6L147.8,220.6z M163.4,140.2c-3.1,0-6.2,0.6-9.1,1.9
				c-11.8,5-17.3,18.7-12.3,30.6c3.7,8.6,12.1,14.2,21.5,14.2c3.1,0,6.2-0.6,9.1-1.9c11.8-5,17.3-18.7,12.3-30.6
				C181.2,145.8,172.8,140.2,163.4,140.2z"/>
			<path style="fill:#0071CB;" d="M177.7,107.1l1.2,0.3c4,1.1,7.7,2.5,11.3,4.4l1.1,0.6l0.3,14.2c0,1,0.2,1.9,0.6,2.8c0.4,0.9,1,1.7,1.7,2.4
				c1.5,1.4,3.4,2.1,5.4,2.1l14.2-0.3l0.6,1.1c1.2,2.1,2.2,4.2,3.1,6.2c0.7,1.6,1.3,3.2,1.8,4.9l0.4,1.2l-9.9,10.2
				c-2.2,2.3-2.6,5.5-1.5,8.2c0.4,0.9,1,1.8,1.7,2.5l10.2,9.7l-0.3,1.2c-1.1,4-2.6,7.8-4.4,11.3l-0.6,1.1l-14.2,0.3
				c-4.2,0.1-7.5,3.5-7.4,7.8l0.3,14.2l-1.1,0.6c-2.1,1.2-4,2.2-6.1,3c-1.7,0.7-3.4,1.3-5.1,1.9l-1.2,0.4l-10.2-9.9
				c-1.5-1.4-3.3-2.1-5.2-2.1c-2,0-4,0.8-5.5,2.3l-9.8,10.2l-1.2-0.3c-4-1.1-7.7-2.5-11.3-4.4l-1.1-0.6l-0.3-14.2
				c0-1-0.2-1.9-0.6-2.8c-0.4-0.9-1-1.8-1.8-2.5c-1.5-1.4-3.4-2.1-5.4-2.1l-14.2,0.3l-0.6-1.1c-1-2-2-4.1-2.9-6.1
				c-0.7-1.7-1.3-3.4-1.9-5l-0.4-1.2l9.8-10.2c2.2-2.3,2.6-5.5,1.5-8.2c-0.4-0.9-1-1.8-1.7-2.5l-10.2-9.8l0.3-1.2
				c1.1-4,2.6-7.8,4.4-11.3l0.6-1.1l14.2-0.3c4.2-0.1,7.5-3.5,7.4-7.8l-0.3-14.2l1.1-0.6c2.1-1.2,4-2.2,6.1-3
				c1.7-0.7,3.4-1.3,5.1-1.9l1.2-0.4l10.2,9.9c1.5,1.4,3.3,2.1,5.2,2.1c2,0,4-0.8,5.5-2.3L177.7,107.1 M163.5,187.8
				c3.2,0,6.4-0.6,9.5-1.9c12.3-5.3,18.1-19.5,12.8-31.9c-3.9-9.2-12.9-14.8-22.4-14.8c-3.2,0-6.4,0.6-9.5,1.9
				c-12.3,5.3-18.1,19.5-12.8,31.9C145.1,182.3,154.1,187.8,163.5,187.8 M177,104.9l-0.8,0.8l-9.8,10.2c-1.1,1.1-2.5,1.7-4.1,1.7
				c-1.4,0-2.8-0.5-3.8-1.5l-10.2-9.9l-0.9-0.8l-1.1,0.4l-1.2,0.4c-2,0.6-3.7,1.3-5.3,1.9c-1.9,0.8-3.9,1.8-6.3,3.1l-1.1,0.6l-1,0.6
				l0,1.2l0.3,14.2c0.1,3.1-2.3,5.7-5.4,5.7l-14.2,0.3l-1.2,0l-0.5,1.1l-0.6,1.1c-2,4.1-3.5,7.9-4.5,11.7L105,149l-0.3,1.1l0.9,0.8
				l10.2,9.8c0.5,0.5,0.9,1.1,1.2,1.8c0.9,2.1,0.5,4.4-1.1,6.1l-9.8,10.2l-0.8,0.9l0.4,1.1l0.4,1.2c0.6,1.9,1.3,3.6,1.9,5.2
				c0.7,1.6,1.4,3.1,2.2,4.7c0.2,0.5,0.5,1,0.7,1.5l0,0.1l0,0.1l0.6,1.1l0.6,1l1.2,0l14.2-0.3c1.5,0,3,0.6,4,1.6l0,0l0,0
				c0.5,0.5,1,1.1,1.2,1.7c0.3,0.6,0.4,1.3,0.4,2l0.3,14.2l0,1.2l1.1,0.5l1.1,0.6c3.9,1.9,7.7,3.4,11.7,4.5l1.2,0.3l1.1,0.3l0.8-0.8
				l9.8-10.2c1.1-1.1,2.5-1.7,4.1-1.7c1.4,0,2.8,0.5,3.8,1.5l10.2,9.9l0.9,0.8l1.1-0.4l1.2-0.4c2-0.6,3.7-1.3,5.3-1.9
				c1.9-0.8,3.9-1.8,6.3-3.1l1.1-0.6l1-0.6l0-1.2l-0.3-14.2c-0.1-3.1,2.3-5.7,5.4-5.7l14.2-0.3l1.2,0l0.5-1.1l0.6-1.1
				c2-4.1,3.5-7.9,4.5-11.7l0.3-1.2l0.3-1.1l-0.9-0.8l-10.2-9.7c-0.5-0.5-0.9-1.1-1.2-1.8c-0.9-2.1-0.5-4.4,1.1-6.1l9.9-10.2
				l0.8-0.9l-0.4-1.1l-0.4-1.2c-0.5-1.7-1.2-3.4-1.9-5.1c-0.9-2.2-2-4.3-3.2-6.4l-0.6-1.1l-0.6-1l-1.2,0l-14.2,0.3
				c-1.5,0-3-0.6-4-1.6c-0.5-0.5-0.9-1.1-1.2-1.8c-0.3-0.7-0.4-1.4-0.4-2.1l-0.3-14.2l0-1.2l-1.1-0.5l-1.1-0.6
				c-3.9-1.9-7.7-3.4-11.7-4.5l-1.2-0.3L177,104.9L177,104.9z M163.5,185.8c-9,0-17-5.3-20.5-13.6c-2.3-5.5-2.4-11.5-0.2-17.1
				s6.5-9.9,11.9-12.2c2.8-1.2,5.7-1.8,8.7-1.8c9,0,17,5.3,20.5,13.6c2.3,5.5,2.4,11.5,0.2,17.1c-2.2,5.5-6.5,9.9-11.9,12.2
				C169.4,185.2,166.5,185.8,163.5,185.8L163.5,185.8z"/>
		</g>
		<g id="con_smallCog" style="display:inline;">
			<path style="fill:#BCDE24;" d="M96.2,128.5c-3-0.8-5.9-1.9-8.8-3.4l-1.4-0.7L85.8,113c0-0.6-0.1-1.2-0.4-1.7c-0.3-0.6-0.6-1.1-1.1-1.5
				c-0.9-0.9-2.2-1.4-3.5-1.4l-11.4,0.3l-0.8-1.3l-0.6-1.2c-0.6-1.2-1.2-2.3-1.7-3.5c-0.5-1.2-1-2.5-1.4-3.9l-0.5-1.5l7.9-8.2
				c1.3-1.4,1.7-3.4,0.9-5.2c-0.3-0.6-0.6-1.1-1.1-1.6l-8.2-7.8l0.4-1.5c0.8-2.9,1.9-5.8,3.4-8.8l0.7-1.4l11.4-0.3
				c2.6-0.1,4.7-2.2,4.6-4.9l-0.2-11.4l1.3-0.8c1.8-1,3.3-1.8,4.7-2.4c1.2-0.5,2.5-1,4-1.5l1.5-0.5l8.2,7.9c0.9,0.8,2,1.3,3.3,1.3
				c1.3,0,2.5-0.5,3.5-1.5l7.8-8.1l1.5,0.4c3,0.8,5.9,1.9,8.8,3.4l1.4,0.7l0.2,11.4c0,0.6,0.1,1.2,0.4,1.8c0.2,0.6,0.6,1.1,1,1.5
				c0.9,0.9,2.1,1.4,3.4,1.4l11.4-0.3l0.8,1.3c0.9,1.7,1.7,3.2,2.4,4.9c0.5,1.3,1,2.5,1.4,3.8l0.5,1.5l-7.9,8.2
				c-1.3,1.4-1.7,3.4-0.9,5.2c0.3,0.6,0.6,1.1,1.1,1.6l8.2,7.8l-0.4,1.5c-0.8,2.9-1.9,5.8-3.4,8.8l-0.7,1.4l-11.4,0.3
				c-2.6,0.1-4.7,2.2-4.6,4.9l0.2,11.4l-1.3,0.8c-1.8,1-3.3,1.8-4.7,2.4c-1.2,0.5-2.5,1-4,1.5l-1.5,0.5l-8.2-7.9
				c-0.9-0.8-2-1.3-3.3-1.3c-1.3,0-2.5,0.5-3.5,1.5l-7.9,8.2L96.2,128.5z M108.2,67.4c-2.3,0-4.6,0.5-6.8,1.4
				c-4.3,1.8-7.6,5.2-9.3,9.5c-1.7,4.3-1.7,9.1,0.1,13.4c2.7,6.4,9.1,10.6,16.1,10.6c2.3,0,4.6-0.5,6.8-1.4c8.9-3.8,13-14,9.2-22.9
				C121.5,71.6,115.2,67.4,108.2,67.4z"/>
			<path style="fill:#0071CB;" d="M119,42l0.9,0.2c3,0.8,5.9,1.9,8.6,3.3l0.8,0.4l0.2,10.8c0,0.7,0.2,1.5,0.5,2.1c0.3,0.7,0.7,1.3,1.3,1.8
				c1.1,1.1,2.6,1.6,4.1,1.6l10.8-0.3l0.5,0.8c0.9,1.6,1.7,3.2,2.4,4.7c0.5,1.2,1,2.5,1.4,3.7l0.3,0.9l-7.5,7.7
				c-1.6,1.7-2,4.2-1.1,6.2c0.3,0.7,0.7,1.3,1.3,1.9l7.8,7.4l-0.2,0.9c-0.8,3-2,5.9-3.3,8.6l-0.4,0.8l-10.8,0.3
				c-3.2,0.1-5.7,2.7-5.6,5.9l0.2,10.8l-0.8,0.5c-1.6,0.9-3.1,1.7-4.6,2.3c-1.3,0.5-2.6,1-3.9,1.4l-0.9,0.3l-7.8-7.5
				c-1.1-1.1-2.5-1.6-4-1.6c-1.5,0-3,0.6-4.2,1.8l-7.5,7.7l-0.9-0.2c-3-0.8-5.9-1.9-8.6-3.3l-0.8-0.4L86.8,113
				c0-0.7-0.2-1.5-0.4-2.1c-0.3-0.7-0.7-1.3-1.3-1.9c-1.1-1.1-2.6-1.6-4.1-1.6l-10.8,0.3l-0.5-0.8c-0.7-1.5-1.5-3.1-2.2-4.6
				c-0.5-1.3-1-2.6-1.4-3.8l-0.3-0.9l7.5-7.7c1.6-1.7,2-4.2,1.1-6.2c-0.3-0.7-0.7-1.3-1.3-1.9l-7.8-7.4l0.2-0.9c0.8-3,2-5.9,3.3-8.6
				l0.4-0.8l10.8-0.3c3.2-0.1,5.7-2.7,5.6-5.9l-0.2-10.8l0.8-0.5c1.6-0.9,3.1-1.7,4.6-2.3c1.3-0.5,2.6-1,3.9-1.4l0.9-0.3l7.8,7.5
				c1.1,1.1,2.5,1.6,4,1.6c1.5,0,3-0.6,4.2-1.8L119,42 M108.3,103.3c2.4,0,4.9-0.5,7.2-1.5c9.4-4,13.7-14.9,9.7-24.2
				c-3-7-9.8-11.2-17-11.2c-2.4,0-4.9,0.5-7.2,1.5c-9.4,4-13.7,14.9-9.7,24.2C94.2,99.1,101.1,103.3,108.3,103.3 M118.4,39.8
				l-0.8,0.8l-7.4,7.7c-0.7,0.7-1.7,1.1-2.7,1.1c-1,0-1.9-0.4-2.6-1L97,41l-0.9-0.8L95,40.5l-0.9,0.3c-1.5,0.5-2.8,1-4,1.5
				c-1.5,0.6-3,1.4-4.8,2.4l-0.8,0.5l-1,0.6l0,1.2l0.2,10.8c0,2.1-1.6,3.8-3.7,3.9l-10.8,0.3l-1.2,0L67.5,63l-0.4,0.8
				c-1.5,3.1-2.7,6.1-3.5,9l-0.2,0.9l-0.3,1.1l0.9,0.8l7.8,7.4c0.3,0.3,0.6,0.8,0.8,1.2c0.6,1.4,0.3,3-0.7,4.1l-7.5,7.7L63.5,97
				l0.4,1.1l0.3,0.9c0.5,1.5,1,2.8,1.5,4c0.5,1.2,1.1,2.4,1.7,3.6c0.2,0.4,0.4,0.8,0.5,1.1l0,0.1l0,0.1l0.5,0.8l0.6,1l1.2,0
				l10.8-0.3c1,0,2,0.4,2.7,1.1l0,0l0,0c0.4,0.3,0.6,0.7,0.8,1.2c0.2,0.4,0.3,0.9,0.3,1.4l0.2,10.8l0,1.2l1.1,0.5L87,126
				c3,1.5,5.9,2.6,9,3.5l0.9,0.2L98,130l0.8-0.8l7.5-7.7c0.7-0.7,1.7-1.1,2.7-1.1c1,0,1.9,0.4,2.6,1l7.8,7.5l0.9,0.8l1.1-0.4
				l0.9-0.3c1.5-0.5,2.8-1,4-1.5c1.5-0.6,3-1.4,4.8-2.4l0.8-0.5l1-0.6l0-1.2l-0.2-10.8c0-2.1,1.6-3.8,3.7-3.9l10.8-0.3l1.2,0
				l0.5-1.1l0.4-0.8c1.5-3.1,2.7-6.1,3.5-9l0.2-0.9l0.3-1.1l-0.9-0.8l-7.8-7.4c-0.3-0.3-0.6-0.8-0.8-1.2c-0.6-1.4-0.3-3,0.7-4.1
				l7.5-7.7l0.8-0.9l-0.4-1.1l-0.3-0.9c-0.4-1.3-0.9-2.6-1.4-3.9c-0.7-1.7-1.5-3.3-2.5-4.9l-0.5-0.8l-0.6-1l-1.2,0l-10.8,0.3
				c-1,0-2-0.4-2.7-1.1c-0.4-0.3-0.6-0.7-0.8-1.2c-0.2-0.4-0.3-0.9-0.3-1.4L131.4,46l0-1.2l-1.1-0.5l-0.8-0.4c-3-1.5-5.9-2.6-9-3.5
				l-0.9-0.2L118.4,39.8L118.4,39.8z M108.3,101.3c-6.6,0-12.6-3.9-15.2-10c-1.7-4-1.8-8.5-0.1-12.6c1.6-4.1,4.8-7.3,8.8-9
				c2.1-0.9,4.2-1.3,6.4-1.3c6.6,0,12.6,3.9,15.2,10c1.7,4,1.8,8.5,0.1,12.6c-1.6,4.1-4.8,7.3-8.8,9
				C112.6,100.9,110.5,101.3,108.3,101.3L108.3,101.3z"/>
		</g>
	</g>
</svg>
