<svg version="1.1" xmlns="http://www.w3.org/2000/svg" xmlns:xlink="http://www.w3.org/1999/xlink" x="0px" y="0px"
	 viewBox="0 0 240 240" style="enable-background:new 0 0 240 240;" xml:space="preserve">

<g class="frame">
	<path d="M220,240H20c-11,0-20-9-20-20V20C0,9,9,0,20,0h200c11,0,20,9,20,20v200C240,231,231,240,220,240z"/>
</g>
	<g id="data_management">
		<path style="display:inline;fill:#36A9E1;" d="M182.5,25h-6.9H64.5h-6.9l-4.9,4.9L24.9,57.7L20,62.5v6.9v128.9V215h16.7h166.7H220v-16.7V69.4v-6.9
			l-4.9-4.9l-27.7-27.8L182.5,25L182.5,25z"/>
		<g style="display:inline;">
			<polygon style="fill:#0064A8;" points="203.3,59.4 36.7,59.4 64.5,31.7 175.6,31.7 			"/>
		</g>
		<g style="display:inline;">
			<polygon style="fill:#0064A8;" points="36.7,73.4 36.7,128.9 81.4,128.9 175.5,128.9 203.3,128.9 203.3,73.4 			"/>
		</g>
		<g style="display:inline;">
			<rect x="36.7" y="142.8" style="fill:#0064A8;" width="166.6" height="55.5"/>
		</g>
		<polygon style="display:inline;fill:#6ACCEF;" points="189.4,115 50.6,115 50.6,87.3 99.2,87.3 99.2,101.1 140.8,101.1 140.8,87.3 189.4,87.3 		"/>
		<polygon style="display:inline;fill:#6ACCEF;" points="50.6,156.7 99.2,156.7 99.2,170.6 140.8,170.6 140.8,156.7 189.4,156.7 189.4,184.4 50.6,184.4 		
			"/>
		<polygon style="display:inline;fill:#FFFFFF;" points="166.2,106.9 53.5,142.8 177.7,142.8 		"/>
	</g>
</svg>
