<svg version="1.1" xmlns="http://www.w3.org/2000/svg" xmlns:xlink="http://www.w3.org/1999/xlink" x="0px" y="0px"
	 viewBox="0 0 240 240" style="enable-background:new 0 0 240 240;" xml:space="preserve">

<g class="frame">
	<path d="M220,240H20c-11,0-20-9-20-20V20C0,9,9,0,20,0h200c11,0,20,9,20,20v200C240,231,231,240,220,240z"/>
</g>
	<g id="estate_management">
		<g id="est_background" style="display:inline;">
			<polygon style="opacity:0.4;fill:#56BCD9;" points="153.3,82.5 86.7,82.5 86.7,121.8 86.7,220 153.3,220 153.3,141.4 			"/>
			<rect x="20" y="121.8" style="opacity:0.4;fill:#B6E8FD;" width="66.7" height="98.2"/>
			<rect x="153.3" y="141.4" style="opacity:0.4;fill:#4B9FD1;" width="66.7" height="78.6"/>
		</g>
		<g id="est_foreground" style="display:inline;">
			<polygon style="fill:#56BCD9;" points="103.3,161.7 86.7,161.7 86.7,178.3 86.7,220 103.3,220 103.3,186.7 			"/>
			<polygon style="fill:#5FBBDE;" points="153.3,20 136.7,20 120,53.3 120,186.7 120,220 153.3,220 153.3,136.7 			"/>
			<polygon style="fill:#3599CA;" points="203.3,86.7 203.3,161.7 203.3,220 203.4,220 220,220 220,86.7 			"/>
			<path style="fill:#399ED1;" d="M70,178.3V220H36.7v-25v-33.3V70H70v91.7V178.3z M162,197.3v-35.6h-33.3v35.6v13v9.7H162v-16.2V197.3z"/>
			<polygon style="fill:#B0E2F7;" points="186.7,153.3 170,153.3 170,220 186.7,220 186.7,161.7 			"/>
			<polygon style="fill:#3899CD;" points="170,136.7 153.3,136.7 153.3,220 170,220 170,153.3 			"/>
			<rect x="70" y="178.3" style="fill:#B6E8FD;" width="16.7" height="41.7"/>
			<rect x="20" y="195" style="fill:#57C3F4;" width="16.7" height="25"/>
			<rect x="103.3" y="186.7" style="fill:#4B9FD1;" width="16.7" height="33.3"/>
			<rect x="186.7" y="161.7" style="fill:#349FD1;" width="16.7" height="58.3"/>
		</g>
	</g>
</svg>
