<svg xmlns="http://www.w3.org/2000/svg" viewBox="0 0 240 240"><g id="new"><path class="cls-1" d="M21.61,149.46,0,156.31l43.57,22.6,22.6-43.57-22.06,7c-17.37-54.82,8-111.78,56.78-127.22A116.86,116.86,0,0,0,21.61,149.46Zm104.26,84.66a113.46,113.46,0,0,1-80-32.73,10,10,0,1,1,14-14.26A94.12,94.12,0,0,0,220,120c0-51.49-41.89-93.71-93.37-94.11a10,10,0,0,1,.08-20h.08a114.12,114.12,0,0,1-.91,228.24Z"/><path id="hands" class="cls-1" d="M173.79,167.83a15,15,0,0,1-20.62,5l-49-30-.24-.16c-.24-.15-.47-.31-.7-.48l-.56-.42-.54-.46c-.2-.18-.4-.35-.59-.54l-.42-.43c-.2-.21-.4-.42-.58-.64l-.36-.46c-.18-.22-.35-.45-.51-.68s-.24-.36-.35-.54-.27-.43-.4-.66-.23-.45-.35-.67-.2-.39-.29-.59-.21-.52-.31-.78-.14-.37-.2-.56-.16-.54-.24-.82-.11-.4-.15-.6-.1-.51-.15-.77-.08-.48-.11-.72,0-.45-.06-.68,0-.57,0-.86c0-.09,0-.19,0-.28V48.67a15,15,0,0,1,30,0V121.6l41.83,25.61A15,15,0,0,1,173.79,167.83Z"/></g></svg>