<svg version="1.1" xmlns="http://www.w3.org/2000/svg" xmlns:xlink="http://www.w3.org/1999/xlink" x="0px" y="0px"
	 viewBox="0 0 240 240" style="enable-background:new 0 0 240 240;" xml:space="preserve">

<g class="frame">
	<path d="M220,240H20c-11,0-20-9-20-20V20C0,9,9,0,20,0h200c11,0,20,9,20,20v200C240,231,231,240,220,240z"/>
</g>
	<g id="reconcilliation">
		<g style="display:inline;">
			<path style="fill:#BCDE24;" d="M52.9,61.7L52.9,61.7l-32.8,91.6c7,16.4,23.2,27.8,42.1,27.8s34.2-11.5,41.1-27.8L73.6,70H61.2
				C56.6,70,52.9,66.3,52.9,61.7z M85.6,153.3H38l24.1-67L85.6,153.3z"/>
		</g>
		<g style="display:inline;">
			<path style="fill:#BCDE24;" d="M177.9,181.2c18.9,0,35.2-11.5,42.1-27.8l-32.8-90.9c-0.3,4.3-3.9,7.7-8.3,7.7h-12.6l-29.5,83.3
				C143.7,169.7,158.9,181.2,177.9,181.2z M177.7,86.3l24.3,67h-47.5L177.7,86.3z"/>
		</g>
		<g style="display:inline;">
			<path style="fill:#FFD00E;" d="M61.9,179.5c-16.9,0-32.3-10.1-39-25.5h78C94.2,169.3,78.9,179.5,61.9,179.5z"/>
			<path style="fill:#000000;" d="M97.8,155.9c-7,13.1-20.7,21.5-35.8,21.5s-28.8-8.4-35.8-21.5H97.8 M103.9,151.9H20
				c6.2,17.2,22.6,29.5,41.9,29.5S97.7,169.1,103.9,151.9L103.9,151.9z"/>
		</g>
		<g style="display:inline;">
			<path style="fill:#FFD00E;" d="M178.1,179.5c-16.9,0-32.3-10.1-39-25.5h78C210.3,169.3,195,179.5,178.1,179.5z"/>
			<path style="fill:#000000;" d="M213.9,155.9c-7,13.1-20.7,21.5-35.8,21.5c-15.1,0-28.8-8.4-35.8-21.5H213.9 M220,151.9h-83.9
				c6.2,17.2,22.6,29.5,41.9,29.5S213.8,169.1,220,151.9L220,151.9z"/>
		</g>
		<path style="display:inline;fill:#000000;" d="M111.7,53.4L111.7,53.4l-50,0c-0.3,0-0.6,0-0.9,0.1c0.1,0,0.2,0,0.4,0H111.7z"/>
		<path style="display:inline;fill:#000000;" d="M119.2,20c-2.2,0.2-4.2,1.3-5.6,3C115,21.4,117,20.3,119.2,20z"/>
		<path style="display:inline;fill:#000000;" d="M178.8,53.4c-0.2,0-0.5,0-0.7,0h-49.7v0H178.8z"/>
		<path style="display:inline;fill:#000000;" d="M127.9,25.6c0.1,0.4,0.2,0.7,0.3,1.1C128.1,26.3,128,25.9,127.9,25.6z"/>
		<path style="display:inline;fill:#000000;" d="M65,220c-0.7-0.1-1.3-0.2-1.9-0.4C63.7,219.7,64.3,219.9,65,220z"/>
		<path style="display:inline;fill:#000000;" d="M63.1,203.8c0.6-0.2,1.2-0.4,1.9-0.4C64.3,203.4,63.7,203.6,63.1,203.8z"/>
		<path style="display:inline;fill:#000000;" d="M111.9,26.7c0.2-1.1,0.7-2.1,1.3-3C112.5,24.6,112.1,25.6,111.9,26.7z"/>
		<path style="display:inline;fill:#0071CB;" d="M185.9,58.9l1.3,3.5c0-0.2,0-0.4,0-0.7c0-4.6-3.7-8.3-8.3-8.3h-0.1C182.1,53.7,184.8,55.9,185.9,58.9z"/>
		<path style="display:inline;fill:#0071CB;" d="M127.9,25.6c-1.1-3.2-4.2-5.6-7.9-5.6C123.7,20,126.8,22.3,127.9,25.6z"/>
		<path style="display:inline;fill:#0071CB;" d="M182.3,211.7c0,4.6-3.7,8.3-8.3,8.3h0.3c4.6,0,8.3-3.7,8.3-8.3c0-4.6-3.7-8.3-8.3-8.3H174
			C178.6,203.3,182.3,207.1,182.3,211.7z"/>
		<path style="display:inline;fill:#0071CB;" d="M60.9,53.4c-4.4,0.2-8,3.8-8,8.3l1-2.8C55,55.9,57.6,53.7,60.9,53.4z"/>
		<polygon style="display:inline;fill:#0071CB;" points="128.4,70 128.4,70 166.2,70 166.2,70 		"/>
		<path style="display:inline;fill:#0071CB;" d="M57.5,211.7c0,3.6,2.3,6.7,5.6,7.9C59.8,218.4,57.5,215.3,57.5,211.7z"/>
		<path style="display:inline;fill:#0071CB;" d="M63.1,203.8c-3.2,1.1-5.6,4.2-5.6,7.9C57.5,208,59.8,205,63.1,203.8z"/>
		<polygon style="display:inline;fill:#0071CB;" points="73.6,70 73.6,70 111.7,70 111.7,70 		"/>
		<path style="display:inline;fill:#0071CB;" d="M187.2,62.4l-1.3-3.5c-1.1-3-3.8-5.2-7.1-5.5h-50.4v0v-25c0-0.6-0.1-1.1-0.2-1.7c-0.1-0.4-0.2-0.7-0.3-1.1
			c-1.1-3.2-4.2-5.6-7.9-5.6c-0.3,0-0.6,0-0.9,0c-2.2,0.2-4.2,1.3-5.6,3c-0.2,0.2-0.3,0.4-0.5,0.6c-0.6,0.9-1,1.9-1.3,3
			c-0.1,0.5-0.2,1.1-0.2,1.7v25v0H61.2c-0.1,0-0.2,0-0.4,0c-3.2,0.3-5.9,2.5-6.9,5.5l-1,2.8l0,0c0,4.6,3.7,8.3,8.3,8.3h12.4l0,0
			h38.1v0v133.3H65.8c-0.3,0-0.6,0-0.9,0c-0.7,0.1-1.3,0.2-1.9,0.4c-3.2,1.1-5.6,4.2-5.6,7.9s2.3,6.7,5.6,7.9
			c0.6,0.2,1.2,0.4,1.9,0.4c0.3,0,0.6,0,0.9,0H174c4.6,0,8.3-3.7,8.3-8.3s-3.7-8.3-8.3-8.3h-45.6V70v0h37.9l0,0h12.6
			C183.2,70,186.8,66.7,187.2,62.4z"/>
	</g>
</svg>
