<svg version="1.1" xmlns="http://www.w3.org/2000/svg" xmlns:xlink="http://www.w3.org/1999/xlink" x="0px" y="0px"
	 viewBox="0 0 240 240" style="enable-background:new 0 0 240 240;" xml:space="preserve">

<g class="frame">
	<path d="M220,240H20c-11,0-20-9-20-20V20C0,9,9,0,20,0h200c11,0,20,9,20,20v200C240,231,231,240,220,240z"/>
</g>
	<g id="support">
    <path style="fill:#FFD00E;" d="M120,20C64.8,20,20,64.8,20,120s44.8,100,100,100s100-44.8,100-100S175.2,20,120,20L120,20z M120,36.7
        c46,0,83.3,37.4,83.3,83.3S166,203.3,120,203.3S36.7,166,36.7,120S74,36.7,120,36.7 M120,186.6c36.7,0,66.6-29.9,66.6-66.6
        S156.7,53.4,120,53.4S53.4,83.3,53.4,120S83.3,186.6,120,186.6 M120,170c-27.6,0-50-22.4-50-50c0-27.6,22.4-50,50-50
        c27.6,0,50,22.4,50,50C170,147.6,147.6,170,120,170L120,170z"/>
    <path style="display:inline;fill:#FF7110;" d="M181.6,94.5l15.4-6.4c8.2,19.7,8.8,42.5,0,63.8l-15.4-6.4C188.6,128.5,188.1,110.3,181.6,94.5z M145.5,58.4
      l6.4-15.4c-21.3-8.8-44.1-8.2-63.8,0l6.4,15.4C110.3,51.9,128.5,51.4,145.5,58.4z M58.4,94.5L43,88.1c-8.8,21.3-8.2,44.1,0,63.8
      l15.4-6.4C51.9,129.7,51.4,111.5,58.4,94.5z M94.5,181.6L88.1,197c21.3,8.8,44.1,8.2,63.8,0l-6.4-15.4
      C129.7,188.1,111.5,188.6,94.5,181.6z"/>
</g>
</svg>
