<svg version="1.1" xmlns="http://www.w3.org/2000/svg" xmlns:xlink="http://www.w3.org/1999/xlink" x="0px" y="0px"
	 viewBox="0 0 240 240" style="enable-background:new 0 0 240 240;" xml:space="preserve">

<g class="frame">
	<path d="M220,240H20c-11,0-20-9-20-20V20C0,9,9,0,20,0h200c11,0,20,9,20,20v200C240,231,231,240,220,240z"/>
</g>
	<g id="tools">
		<g id="spanner" style="display:inline;">
			<path style="fill:#57C3F4;" d="M149.8,128.7c17.7-16.4,34.4-30.5,34.4-30.5s2.9,1.3,3,1.3c6.8,1.3,14,0.1,20.3-3.9
				c6.7-4.3,10.8-10.7,12.4-17.8c0.7-3.3-2.9-5.8-5.7-3.9l-16.9,10.7c0,0-3.6,2.3-10.7-9.1c-7.2-11.3-3.7-13.5-3.7-13.5l16.9-10.7
				c2.8-1.8,2.1-6.1-1.2-6.8c-7-1.6-14.5-0.6-21.1,3.5c-10.2,6.3-15,17.8-13.1,28.7c-0.1,0.1,0.6,3,0.5,3.1c0,0-14.3,16.3-30.3,33.8
				l-20.6,21.7c-1.5,1.5-3,3-4.6,4.6c-36.2,36.1-60.7,52.7-60.7,52.7c-6.3,6.3-6.3,16.4,0,22.7s16.4,6.3,22.7,0
				c0,0,16-25.1,52.2-61.2c1.6-1.6,3.1-3.1,4.6-4.6L149.8,128.7z M66.1,209.5c-3.2,3.2-8.3,3.2-11.5,0c-3.2-3.2-3.2-8.3,0-11.4
				c3.2-3.2,8.3-3.2,11.5,0C69.2,201.2,69.2,206.4,66.1,209.5z"/>
			<path style="fill:#000000;" d="M60.2,221c-4.3,0-8.7-1.7-12.1-5c-3.3-3.2-5-7.5-5-12c0-4.6,1.8-8.8,5-12l0.1-0.1
				c0.2-0.2,24.9-17,60.6-52.5l4.6-4.6L134,113c14.6-16,27.9-31.1,30-33.5c-0.1-0.3-0.1-0.7-0.2-1c-0.2-0.8-0.3-1.3-0.3-1.7
				c-2-11.7,3.3-23.4,13.6-29.7c6.5-4,14.3-5.3,21.8-3.6c1.9,0.4,3.3,1.9,3.6,3.9c0.3,1.9-0.5,3.8-2.2,4.8l-16.9,10.7l0,0
				c0,0-2.2,2.3,4,12.1c5.2,8.3,8.5,9.1,9.3,8.7l16.9-10.6c1.6-1.1,3.6-1,5.2,0c1.6,1.1,2.4,3,2,4.9c-1.7,7.7-6.3,14.2-12.9,18.4
				c-6.2,4-13.6,5.4-20.9,4.1c-0.2,0-0.6-0.2-2.7-1.2c-2.9,2.4-18.1,15.4-33.9,30.1L129,150.2l-4.6,4.6
				c-35.7,35.7-51.9,60.8-52,61.1l-0.1,0.2C68.9,219.4,64.5,221,60.2,221z M49.5,193.4c-2.8,2.8-4.4,6.6-4.4,10.6
				c0,4,1.6,7.8,4.5,10.6c6,5.9,15.3,5.9,21.3,0.1c1.1-1.8,17.5-26.6,52.2-61.3l4.6-4.6l21.5-20.8c17.5-16.2,34.3-30.4,34.5-30.5
				l0.5-0.4l0.6,0.3c1.2,0.5,2.5,1.1,2.8,1.3c6.8,1.2,13.7-0.1,19.5-3.8c6.1-3.9,10.4-10,12-17.1c0.3-1.3-0.4-2.3-1.2-2.8
				c-0.9-0.6-2-0.6-3,0l-16.9,10.7c-0.2,0.1-1,0.5-2.4,0.2c-2.8-0.7-6.1-3.9-9.7-9.6c-3.7-5.8-5.2-10.1-4.5-12.9
				c0.3-1.4,1-1.9,1.2-2l16.9-10.7c1.1-0.7,1.4-1.9,1.2-2.8c-0.1-0.9-0.8-1.9-2.1-2.3c-7-1.6-14.3-0.4-20.3,3.4
				c-9.4,5.8-14.5,16.9-12.6,27.7l0.1,0.5l0,0c0.1,0.3,0.1,0.7,0.2,1c0.3,1.8,0.4,2,0,2.4c-0.1,0.1-14.4,16.4-30.3,33.8l-20.6,21.7
				l-4.6,4.6C75.5,175.4,51,192.3,49.5,193.4z M60.4,212.9c-2.3,0-4.6-0.9-6.5-2.7c-1.7-1.7-2.7-4.1-2.7-6.5c0-2.4,1-4.7,2.7-6.3
				c3.6-3.6,9.2-3.6,12.9,0c1.7,1.7,2.7,4.1,2.7,6.5c0,2.4-1,4.7-2.7,6.3C65,212,62.7,212.9,60.4,212.9z M60.3,196.7
				c-1.8,0-3.6,0.7-5,2.1c-1.3,1.3-2.1,3-2.1,4.9c0,1.9,0.7,3.7,2.1,5.1c2.9,2.8,7.3,2.8,10.1,0l0,0c1.3-1.3,2.1-3,2.1-4.9
				c0-1.9-0.7-3.7-2.1-5.1C63.9,197.4,62.1,196.7,60.3,196.7z"/>
		</g>
		<g id="hammer" style="display:inline;">
			<path style="fill:#000000;" d="M201,222c-1.8,0-3.7-0.7-5-2.1l-69.1-69L99.8,124c-1.8-1.8-1.8-4.6,0-6.4c0.2-0.2,0.2-0.5,0-0.8l-24-24
				c-0.4-0.4-0.8-0.6-1.4-0.6c-0.5,0-1.1,0.2-1.5,0.6l-0.8,0.8c-1.3,1.3-3.1,2-5,2c-1.8,0-3.5-0.7-4.7-2c-1.1-1.1-2.9-1.1-4,0
				l-0.8,0.8c-3,3-3,7.8,0,10.8l1.4,1.4l-7.4,7.4c-4,4-10.6,4-14.6,0L20.9,97.8C19.1,96,18,93.6,18,90.9c0-2.7,1-5.2,2.9-7.1
				l7.8-7.8l1.4,1.4c2.4,2.4,6.2,2.4,8.7,0l1.8-1.8c0.5-0.5,0.8-1.2,0.8-1.9c0-0.7-0.3-1.3-0.7-1.7c-2.2-2.2-2.2-5.8,0-8l18.5-18.5
				l9.4-9.6c2.5-2.4,15.1-12.3,30.9-16.6c14.6-4.1,31.9,2.2,36.8,4.2l0.2,0.1c1.7,0.7,2.3,2.7,2,4.4c-0.3,1.6-1.4,2.6-2.8,2.6
				c-0.1,0-0.4,0-0.8,0c-2.1,0-8.4-0.2-11.4,0.5c-0.7,0.1-1.5,0.2-2.4,0.3c-4.1,0.5-11.1,1.3-18.5,8.7c-3.8,3.7-6.3,7.1-7.7,9.3
				c-2.3,3.5-1.9,8,1.1,10.9l0.1,0.1c1.2,1.1,1.9,2.8,1.9,4.5c0,1.7-0.7,3.4-1.9,4.5l-3.5,3.5c-0.4,0.4-0.6,0.9-0.6,1.4
				c0,0.5,0.2,1,0.6,1.4l24,23.9c0.1,0.1,0.3,0.2,0.4,0.2c0.1,0,0.3,0,0.4-0.2c0.9-0.9,2-1.3,3.2-1.3c1.2,0,2.4,0.5,3.2,1.3
				l12.3,12.4l15.1,15l68.7,68.6c2.3,2.3,2.7,5.7,1.3,8.4l0.4,0.4l-16.7,16.8l-0.4-0.4C203.4,221.7,202.2,222,201,222z M74.4,88.2
				C74.5,88.2,74.5,88.2,74.4,88.2c1.7,0,3.2,0.7,4.3,1.8l24,24c0.9,0.9,1.3,2,1.3,3.2s-0.5,2.3-1.3,3.2c-0.2,0.2-0.2,0.5,0,0.8
				l27.1,26.9l69.1,69c1.2,1.2,3.2,1.2,4.4,0l1.4-1.4l0.2,0.2l11.1-11.1l-0.1-0.1l1.4-1.4c1.2-1.2,1.2-3.2-0.1-4.5l-68.7-68.6
				l-15.1-15L121,102.7c-0.2-0.2-0.6-0.2-0.8,0c-0.9,0.9-2,1.3-3.2,1.3c-1.2,0-2.4-0.5-3.2-1.3l-24-23.9c-1.1-1.1-1.8-2.7-1.8-4.3
				s0.6-3.1,1.8-4.2l3.6-3.6c0.5-0.5,0.7-1,0.7-1.7c0-0.6-0.2-1.2-0.7-1.6l-0.1-0.1c-4.2-4.2-4.9-10.9-1.6-15.9
				c1.5-2.4,4.2-6,8.3-10c8.4-8.4,16.2-9.3,20.8-9.8c0.8-0.1,1.5-0.2,2-0.3c2.7-0.6,7.4-0.6,10.4-0.6c-6.1-2.3-20.5-6.9-32.6-3.4
				c-14.8,4.1-27,13.5-29.2,15.6L62,48.4L43.5,66.9c-0.6,0.6-0.6,1.7,0,2.3c1.2,1.2,1.9,2.8,1.9,4.5c0,1.8-0.7,3.5-1.9,4.7l-1.8,1.8
				c-3.6,3.5-8.9,3.9-12.8,1.3l-5.1,5.1c-1.1,1.1-1.7,2.6-1.7,4.2c0,1.5,0.6,3,1.7,4l16.2,16.2c2.5,2.5,6.5,2.5,9,0l4.7-4.7
				c-3.2-4.5-2.8-10.8,1.3-14.9l0.8-0.8c2.6-2.6,6.9-2.7,9.6,0c0.5,0.6,1.2,0.8,2,0.9c0.8,0,1.5-0.3,2.1-0.8l0.8-0.8
				C71.3,88.8,72.8,88.2,74.4,88.2z M135,27.4C135,27.4,135,27.4,135,27.4L135,27.4z"/>
			<path style="fill:#FFDD43;" d="M115.1,101.3l-24-23.9c-1.6-1.6-1.6-4.1,0-5.7L71.6,91.4c1.6-1.6,4.2-1.6,5.7,0l24,24c1,1,1,2.6,0,3.6
				l17.5-17.7C117.7,102.3,116.1,102.3,115.1,101.3z"/>
			<path style="fill:#58B6DF;" d="M94.6,68.1c1.8-1.7,1.8-4.5,0-6.2l-0.1-0.1c-3.6-3.6-4.2-9.2-1.3-13.4c1.8-2.8,4.5-6.3,8-9.7
				c9.4-9.4,18.1-8.8,21.8-9.6c3.8-0.8,11.7-0.5,12.7-0.5s1.3-2.7,0-3.2s-20.2-8.7-35.8-4.3c-15.8,4.3-28.1,14.3-30,16.1L60.6,47
				L48.3,59.2l-6.3,6.3c-1.4,1.4-1.4,3.8,0,5.2c1.8,1.8,1.8,4.7,0,6.4l-1.8,1.8c-3.3,3.2-8.3,3.2-11.5,0l-6.4,6.4
				c-3.1,3.1-3.1,8.1,0,11.1l16.2,16.2c3.3,3.3,8.6,3.3,11.8,0l6-6c-3.8-3.8-3.8-9.8,0-13.6l0.8-0.8c1.9-1.9,4.9-1.8,6.8,0
				c1.8,1.9,5,1.8,6.8,0l0.8-0.8l19.5-19.7L94.6,68.1z"/>
			<path style="fill:#0C68B3;" d="M218.5,197.3l-68.7-68.6l-15.1-15l-12.3-12.4c-1-1-2.7-1-3.7,0L101.2,119c-1,1-1,2.6,0,3.6l12.9,12.8
				l14.2,14.1l69.1,69c2,2,5.3,2,7.3,0l0.2,0.2l13.9-13.9l-0.2-0.2C220.5,202.6,220.5,199.3,218.5,197.3z"/>
		</g>
	</g></svg>
